<svg width="50" height="51" viewBox="0 0 50 51" fill="none" xmlns="http://www.w3.org/2000/svg">
<circle cx="25" cy="25.5" r="25" fill="#FAA61A"/>
<path d="M27.88 17.9672C21.67 15.9872 16 20.5772 16 26.5172C16 27.3272 16.09 28.8572 16.36 29.7572C16.36 29.9372 16.54 30.1172 16.72 30.1172H33.19C33.37 30.1172 33.55 29.9372 33.64 29.7572C33.82 28.8572 34 27.3272 34 26.5172C34 22.6472 31.57 19.1372 27.88 17.9672ZM25 19.3172C25.54 19.3172 25.9 19.6772 25.9 20.2172C25.9 20.7572 25.54 21.1172 25 21.1172C24.46 21.1172 24.1 20.7572 24.1 20.2172C24.1 19.6772 24.46 19.3172 25 19.3172ZM18.7 27.4172C18.16 27.4172 17.8 27.0572 17.8 26.5172C17.8 25.9772 18.16 25.6172 18.7 25.6172C19.24 25.6172 19.6 25.9772 19.6 26.5172C19.6 27.0572 19.24 27.4172 18.7 27.4172ZM21.22 22.7372C20.86 23.0972 20.32 23.0972 19.96 22.7372C19.6 22.3772 19.6 21.7472 19.87 21.3872C20.23 21.0272 20.77 21.0272 21.13 21.3872C21.49 21.7472 21.49 22.3772 21.22 22.7372ZM25 28.3172C24.01 28.3172 23.11 27.4172 23.38 26.5172C23.65 25.6172 25 22.9172 25 22.9172C25 22.9172 26.35 25.6172 26.62 26.5172C26.89 27.4172 25.99 28.3172 25 28.3172ZM30.13 22.7372C29.77 23.0972 29.23 23.0972 28.87 22.7372C28.51 22.3772 28.51 21.8372 28.87 21.4772C29.23 21.1172 29.77 21.1172 30.13 21.4772C30.4 21.7472 30.4 22.3772 30.13 22.7372ZM31.3 27.4172C30.76 27.4172 30.4 27.0572 30.4 26.5172C30.4 25.9772 30.76 25.6172 31.3 25.6172C31.84 25.6172 32.2 25.9772 32.2 26.5172C32.2 27.0572 31.84 27.4172 31.3 27.4172Z" fill="white"/>
</svg>
