<svg width="50" height="51" viewBox="0 0 50 51" fill="none" xmlns="http://www.w3.org/2000/svg">
<circle cx="24.9999" cy="25.5" r="25" fill="#D4D8E2"/>
<path fill-rule="evenodd" clip-rule="evenodd" d="M24.9999 38.4439C32.1486 38.4439 37.9438 32.6487 37.9438 25.5C37.9438 18.3512 32.1486 12.556 24.9999 12.556C17.8511 12.556 12.0559 18.3512 12.0559 25.5C12.0559 32.6487 17.8511 38.4439 24.9999 38.4439ZM14.2137 29.0024C13.8537 27.8964 13.6592 26.7159 13.6592 25.4898C13.6592 24.2705 13.8516 23.0961 14.2078 21.9953H35.7912C36.1474 23.0961 36.3398 24.2705 36.3398 25.4898C36.3398 26.7159 36.1453 27.8964 35.7853 29.0024H14.2137ZM14.4476 29.6525H18.6718C18.9326 30.9188 19.41 32.0257 19.9825 32.9755H16.4807C15.6242 32.0015 14.932 30.8794 14.4476 29.6525ZM17.0995 33.6256H20.4049C20.8912 34.3224 21.4196 34.92 21.9287 35.4196C22.493 35.9732 23.036 36.409 23.477 36.7287C21.0123 36.398 18.7984 35.2755 17.0995 33.6256ZM24.6563 36.731L24.6265 36.7132C24.4991 36.6368 24.3143 36.5209 24.0889 36.3653C23.6376 36.0538 23.0251 35.5845 22.3841 34.9555C21.992 34.5708 21.5906 34.1277 21.2091 33.6256H24.6563V36.731ZM24.6563 32.9755H20.7501C20.1382 32.0396 19.619 30.9328 19.3365 29.6525H24.6563V32.9755ZM25.3064 29.6525V32.9755H29.2791C29.8924 32.0406 30.4139 30.9341 30.7008 29.6525H25.3064ZM31.366 29.6525H35.5514C35.067 30.8794 34.3748 32.0015 33.5182 32.9755H30.0474C30.6214 32.0265 31.101 30.9199 31.366 29.6525ZM29.6237 33.6256H32.8994C31.2054 35.2708 28.9994 36.3915 26.5433 36.7258C26.9807 36.4102 27.5171 35.982 28.075 35.4389C28.5919 34.9357 29.1293 34.3318 29.6237 33.6256ZM25.3064 36.7589V33.6256H28.8186C28.4298 34.1357 28.0205 34.5846 27.6215 34.9731C26.9801 35.5975 26.3685 36.0624 25.9182 36.3706C25.6932 36.5245 25.509 36.6391 25.382 36.7146C25.354 36.7313 25.3287 36.746 25.3064 36.7589ZM35.5585 21.3452H31.2637C31.0055 20.081 30.5334 18.9739 29.9669 18.0223H33.5342C34.3876 18.9969 35.0768 20.1189 35.5585 21.3452ZM32.9181 17.3721H29.55C29.0632 16.6651 28.5335 16.0587 28.0233 15.5521C27.4707 15.0034 26.9388 14.5693 26.5043 14.2485C28.9851 14.5774 31.2127 15.7083 32.9181 17.3721ZM25.3064 14.2243L25.3386 14.2438C25.465 14.3209 25.6484 14.4378 25.8723 14.5946C26.3203 14.9085 26.9284 15.381 27.5651 16.0134C27.9604 16.4059 28.3654 16.8587 28.7497 17.3721H25.3064V14.2243ZM25.3064 18.0223H29.2021C29.807 18.9603 30.3199 20.0674 30.5992 21.3452H25.3064V18.0223ZM24.6563 21.3452V18.0223H20.6802C20.062 18.9592 19.5379 20.066 19.2522 21.3452H24.6563ZM18.5871 21.3452H14.4404C14.9222 20.1189 15.6114 18.9969 16.4648 18.0223H19.9106C19.3325 18.9728 18.8509 20.0797 18.5871 21.3452ZM20.3367 17.3721H17.0808C18.7762 15.7181 20.9877 14.5907 23.451 14.2543C23.011 14.5707 22.4746 14.997 21.9172 15.535C21.3893 16.0445 20.8405 16.6565 20.3367 17.3721ZM24.6563 14.24V17.3721H21.1433C21.5407 16.8537 21.9599 16.3974 22.3687 16.0028C23.0192 15.3749 23.6398 14.9066 24.097 14.5959C24.3254 14.4406 24.5125 14.325 24.6414 14.2487L24.6563 14.24ZM13.009 25.4898C13.009 32.1118 18.3774 37.4802 24.9994 37.4802C31.6214 37.4802 36.99 32.1118 36.99 25.4898C36.99 18.8677 31.6214 13.4994 24.9994 13.4994C18.3774 13.4994 13.009 18.8677 13.009 25.4898ZM16.9047 22.6082C16.0882 22.6257 15.3793 23.2268 15.3842 24.1867C15.3869 24.7131 15.7711 25.1353 16.1686 25.5722L16.2386 25.6493C16.4243 25.8541 16.5725 25.9902 16.6888 26.0969C16.9797 26.3639 17.0709 26.4477 17.0495 26.9671C17.0385 27.2331 16.5971 27.6488 16.1227 27.6477C15.42 27.6464 14.9288 26.9718 15.1235 26.1561H14.9208L14.385 28.0966H14.5877C14.64 27.9207 14.9582 27.914 15.1442 27.9101C15.1689 27.9096 15.1913 27.9091 15.2104 27.9083C15.34 27.9029 15.446 27.9437 15.5729 27.9925C15.7467 28.0594 15.9596 28.1414 16.3255 28.14C17.1915 28.1368 18.0425 27.5704 18.0343 26.5181C18.03 25.9721 17.6949 25.6012 17.2523 25.1714C16.5713 24.5105 16.3059 24.1946 16.4269 23.6654C16.5269 23.2274 16.8398 23.1047 17.1509 23.1006C17.7337 23.0931 17.9845 23.7075 18.0632 24.346H18.2515L18.7294 22.7241H18.5266C18.4822 22.9157 18.2478 22.9253 18.0632 22.9123C18.0457 22.9111 18.0299 22.9108 18.0138 22.9106C17.9534 22.9097 17.8905 22.9087 17.7302 22.8544C17.6737 22.8353 17.6087 22.8089 17.5387 22.7806C17.3407 22.7004 17.1027 22.6041 16.9047 22.6082ZM18.9466 22.8254L18.8886 23.144L18.9006 23.1441C19.2115 23.1453 19.324 23.1458 19.3231 23.7378V28.0966C19.3231 28.0966 19.4075 28.2879 19.5258 28.0966C19.6443 27.9051 21.5677 24.7225 21.5677 24.7225V24.8238L21.5532 28.0966C21.5532 28.0966 21.6756 28.2879 21.7994 28.0966C21.9193 27.911 24.4201 23.784 24.5725 23.5325L24.5797 23.5205C24.7009 23.303 24.7929 23.1515 25.1011 23.144L25.1735 22.8254H23.5371L23.4792 23.144C23.5459 23.1442 23.6086 23.1423 23.6663 23.1406H23.6663C23.9184 23.1331 24.0781 23.1284 24.0874 23.3033C24.0922 23.3935 24.0759 23.4659 24.015 23.5785L22.6682 25.7796L22.6393 25.7362V23.7378C22.6405 23.6479 22.641 23.5593 22.6393 23.4916C22.6304 23.1522 22.7236 23.1447 22.9868 23.144L23.0447 22.8254H21.2201L21.1622 23.144C21.437 23.1515 21.5571 23.2312 21.5532 23.4771V23.926L20.3802 25.823L20.3368 25.852V23.7233L20.3369 23.6566V23.6564C20.3371 23.5887 20.3373 23.509 20.3368 23.4481L20.3364 23.4264C20.3339 23.3102 20.3303 23.1447 20.6409 23.144L20.7278 22.8254H18.9466ZM25.4196 22.8254L25.3617 23.144C25.5113 23.1363 25.6639 23.1928 25.6803 23.3612C25.6853 23.4137 25.6646 23.4836 25.6392 23.5695C25.6291 23.6038 25.6182 23.6406 25.6079 23.6798L24.6087 27.4015C24.5497 27.6487 24.2524 27.7811 23.8557 27.778L23.7978 28.0966H25.9265L25.9989 27.778C25.6411 27.7708 25.6452 27.6761 25.6506 27.5512L25.6513 27.5318C25.6533 27.4754 25.6723 27.4221 25.6932 27.3632C25.7035 27.3342 25.7143 27.3039 25.7237 27.2712L26.7374 23.535C26.8417 23.1856 27.0931 23.1518 27.476 23.144L27.5484 22.8254H25.4196ZM27.838 22.8254L27.7656 23.144C27.7913 23.146 27.8179 23.1477 27.845 23.1495C28.152 23.1699 28.5236 23.1946 28.4172 23.535C28.4053 23.5734 28.4052 23.5852 28.4051 23.6009C28.405 23.6183 28.4049 23.6404 28.3883 23.7088L27.418 27.3291C27.3426 27.6652 27.1075 27.7704 26.8243 27.778L26.7374 28.0966H28.9965L29.0834 27.778C28.5893 27.7767 28.3895 27.7106 28.4896 27.3291L28.5043 27.2741C28.5264 27.1917 28.5564 27.0796 28.5765 26.9815L29.0399 25.3886H29.1413C29.5829 25.3869 29.7075 25.4419 29.7205 25.6782C29.7241 25.744 29.7253 25.8044 29.7264 25.8588L29.7264 25.859C29.7279 25.9301 29.7291 25.991 29.735 26.0403H29.9812L30.3577 24.4908L30.155 24.4618C29.9461 24.9956 29.5008 25.0031 29.344 24.9976H29.1413L29.4599 23.7233C29.591 23.2776 29.6383 23.2772 29.9418 23.2749L29.9957 23.2744C30.6094 23.267 30.9737 23.3676 30.9225 24.2301H31.1252L31.5017 22.8254H27.838ZM31.7913 22.8254L31.4004 24.2301H31.6321L31.6584 24.138C31.7473 23.8257 31.7676 23.7544 31.9796 23.564C32.2172 23.3563 32.4725 23.2744 32.8774 23.2744L31.8203 27.1408C31.748 27.7643 31.3929 27.7702 30.9401 27.7777L30.9225 27.778L30.8501 28.0966H33.2395L33.2974 27.807C32.9916 27.8353 32.8034 27.6343 32.8629 27.4015C32.8715 27.3681 32.8826 27.3288 32.8952 27.2846C32.9164 27.21 32.9415 27.1216 32.9643 27.025L33.949 23.2744C34.6991 23.2739 34.8494 23.575 34.8034 24.2301H35.0206L35.3972 22.8254H31.7913ZM22.7406 27.5029C22.6151 27.5024 22.4832 27.6591 22.451 27.8504C22.4188 28.0417 22.4993 28.1975 22.6248 28.198C22.7501 28.1985 22.8822 28.0417 22.9144 27.8504C22.9466 27.6592 22.866 27.5034 22.7406 27.5029ZM26.4478 27.5029C26.3224 27.5024 26.1903 27.6591 26.1582 27.8504C26.1259 28.0417 26.2065 28.1975 26.332 28.198C26.4574 28.1985 26.5894 28.0417 26.6216 27.8504C26.6539 27.6592 26.5732 27.5034 26.4478 27.5029ZM29.6337 27.5029C29.5082 27.5024 29.3762 27.6591 29.344 27.8504C29.3117 28.0417 29.3779 28.1975 29.5033 28.198C29.6287 28.1985 29.7608 28.0417 29.7929 27.8504C29.8252 27.6592 29.7591 27.5034 29.6337 27.5029ZM18.2225 27.5173C18.0972 27.5168 17.9795 27.6736 17.9474 27.8649C17.9151 28.0562 17.9813 28.2119 18.1067 28.2124C18.2321 28.213 18.3641 28.0562 18.3963 27.8649C18.4285 27.6736 18.3479 27.5179 18.2225 27.5173ZM33.8911 27.5173C33.7657 27.5169 33.6336 27.6736 33.6015 27.8649C33.5692 28.0562 33.6498 28.212 33.7753 28.2124C33.9007 28.213 34.0327 28.0562 34.0649 27.8649C34.0972 27.6737 34.0165 27.5179 33.8911 27.5173Z" fill="white"/>
</svg>
