<svg width="50" height="51" viewBox="0 0 50 51" fill="none" xmlns="http://www.w3.org/2000/svg">
<circle cx="25.0005" cy="25.5" r="25" fill="#D4D8E2"/>
<path d="M25.0003 14.5002C18.9253 14.5002 14.0005 19.4252 14.0005 25.5C14.0005 31.5748 18.9253 36.5002 25.0003 36.5002C31.0753 36.5002 36.0005 31.5748 36.0005 25.5C36.0005 19.4252 31.0753 14.5002 25.0003 14.5002ZM29.7558 27.5922H25.0923C25.0766 27.5922 25.0619 27.5883 25.0463 27.5878C25.0307 27.5885 25.0161 27.5922 25.0002 27.5922C24.5801 27.5922 24.2395 27.2515 24.2395 26.8314V19.0652C24.2395 18.6451 24.5801 18.3044 25.0002 18.3044C25.4204 18.3044 25.761 18.6451 25.761 19.0652V26.0706H29.7555C30.1757 26.0706 30.5163 26.4113 30.5163 26.8314C30.5163 27.2515 30.176 27.5922 29.7558 27.5922Z" fill="white"/>
</svg>
