<svg width="50" height="51" viewBox="0 0 50 51" fill="none" xmlns="http://www.w3.org/2000/svg">
<circle cx="25.0005" cy="25.5" r="25" fill="#D4D8E2"/>
<path d="M25.0007 32.4072L13.8892 24.5371V28.7345V35.8763C13.8892 36.7733 14.5835 37.5001 15.4403 37.5001H34.5602C35.4171 37.5001 36.1114 36.7733 36.1114 35.8763V28.7345V24.5371L25.0007 32.4072Z" fill="white"/>
<path d="M17.1829 25.119L19.0089 26.3889V15.7621C19.0089 14.998 19.6139 14.3764 20.3575 14.3764H29.6431C30.3867 14.3764 30.9916 14.9981 30.9916 15.7621V26.3889L32.8177 25.119L35.3134 23.3837L36.1114 22.8288L32.8177 20.7536V15.7621C32.8177 13.9604 31.3965 12.5 29.6431 12.5H20.3575C18.6041 12.5 17.1829 13.9604 17.1829 15.7621V20.7536L13.8892 22.8288L14.6867 23.3837L17.1829 25.119Z" fill="white"/>
<path fill-rule="evenodd" clip-rule="evenodd" d="M22.3423 20.037C21.831 20.037 21.4164 19.6225 21.4164 19.1111L21.4164 18.2449C21.4164 17.2222 22.2455 16.3931 23.2683 16.3931L26.972 16.3931C27.9947 16.3931 28.8238 17.2222 28.8238 18.2449L28.8238 19.1111C28.8238 19.6225 28.4093 20.037 27.8979 20.037C27.3865 20.037 26.972 19.6225 26.972 19.1111L26.972 18.2449L23.2683 18.2449L23.2683 19.1111C23.2683 19.6225 22.8537 20.037 22.3423 20.037Z" fill="white"/>
<path fill-rule="evenodd" clip-rule="evenodd" d="M27.8979 31.5064C28.4093 31.5064 28.8238 31.921 28.8238 32.4323L28.8238 33.2985C28.8238 34.3213 27.9947 35.1504 26.972 35.1504L23.2683 35.1504C22.2455 35.1504 21.4164 34.3213 21.4164 33.2985L21.4164 32.4323C21.4164 31.921 21.831 31.5064 22.3423 31.5064C22.8537 31.5064 23.2683 31.921 23.2683 32.4323L23.2683 33.2985L26.972 33.2985L26.972 32.4323C26.972 31.921 27.3865 31.5064 27.8979 31.5064Z" fill="white"/>
<path fill-rule="evenodd" clip-rule="evenodd" d="M27.2806 25.7718C27.2806 24.7068 26.371 23.7407 25.1201 23.7407C23.8692 23.7407 22.9596 24.7068 22.9596 25.7718C22.9596 26.8368 23.8692 27.8029 25.1201 27.8029C26.371 27.8029 27.2806 26.8368 27.2806 25.7718ZM29.1324 25.7718C29.1324 23.6273 27.336 21.8889 25.1201 21.8889C22.9041 21.8889 21.1077 23.6273 21.1077 25.7718C21.1077 27.9163 22.9041 29.6547 25.1201 29.6547C27.336 29.6547 29.1324 27.9163 29.1324 25.7718Z" fill="white"/>
</svg>
