<svg width="50" height="51" viewBox="0 0 50 51" fill="none" xmlns="http://www.w3.org/2000/svg">
<circle cx="24.9999" cy="25.5002" r="25" fill="#D4D8E2"/>
<path fill-rule="evenodd" clip-rule="evenodd" d="M13.9999 17.5002C12.8953 17.5002 11.9999 18.3956 11.9999 19.5002V32.5002C11.9999 33.6048 12.8953 34.5002 13.9999 34.5002H35.9999C37.1044 34.5002 37.9999 33.6048 37.9999 32.5002V19.5002C37.9999 18.3956 37.1044 17.5002 35.9999 17.5002H13.9999ZM24.9999 23.5002C25.5522 23.5002 25.9999 23.0525 25.9999 22.5002C25.9999 21.9479 25.5522 21.5002 24.9999 21.5002H16.9999C16.4476 21.5002 15.9999 21.9479 15.9999 22.5002C15.9999 23.0525 16.4476 23.5002 16.9999 23.5002H24.9999ZM21.9999 27.5002C22.5522 27.5002 22.9999 27.0525 22.9999 26.5002C22.9999 25.9479 22.5522 25.5002 21.9999 25.5002H16.9999C16.4476 25.5002 15.9999 25.9479 15.9999 26.5002C15.9999 27.0525 16.4476 27.5002 16.9999 27.5002H21.9999ZM29.9999 26.5002C29.9999 27.0525 29.5522 27.5002 28.9999 27.5002H25.9999C25.4476 27.5002 24.9999 27.0525 24.9999 26.5002C24.9999 25.9479 25.4476 25.5002 25.9999 25.5002H28.9999C29.5522 25.5002 29.9999 25.9479 29.9999 26.5002ZM29.9999 23.5002C30.5522 23.5002 30.9999 23.0525 30.9999 22.5002C30.9999 21.9479 30.5522 21.5002 29.9999 21.5002H28.9999C28.4476 21.5002 27.9999 21.9479 27.9999 22.5002C27.9999 23.0525 28.4476 23.5002 28.9999 23.5002H29.9999Z" fill="white"/>
</svg>
