<svg width="164" height="31" viewBox="0 0 164 31" fill="none" xmlns="http://www.w3.org/2000/svg">
<path d="M0.816 15.172C0.816 18.324 2.944 20.692 6.112 20.692C9.264 20.692 11.408 18.324 11.408 15.172C11.408 12.02 9.264 9.652 6.112 9.652C2.944 9.652 0.816 12.02 0.816 15.172ZM10.032 15.172C10.032 17.652 8.496 19.508 6.112 19.508C3.712 19.508 2.192 17.652 2.192 15.172C2.192 12.676 3.712 10.836 6.112 10.836C8.496 10.836 10.032 12.676 10.032 15.172ZM15.6424 20.5H16.8424V13.828H19.0984V12.772H13.4024V13.828H15.6424V20.5ZM26.7359 20.5H28.2719L24.8319 16.276L28.2559 12.772H26.7359L22.6719 16.884V12.772H21.4719V20.5H22.6719V18.292L23.9519 17.028L26.7359 20.5ZM29.5786 19.524V20.692C31.0666 20.692 32.1226 19.62 32.5226 14.66L32.6026 13.828H35.7226V20.5H36.9226V12.772H31.5626L31.4026 14.596C31.0506 18.564 30.3946 19.524 29.5786 19.524ZM43.4948 20.692C45.8468 20.692 47.3188 18.868 47.3188 16.628C47.3188 14.388 45.8468 12.58 43.4948 12.58C41.1428 12.58 39.6708 14.388 39.6708 16.628C39.6708 18.868 41.1428 20.692 43.4948 20.692ZM43.4948 19.62C41.8468 19.62 40.9188 18.212 40.9188 16.628C40.9188 15.06 41.8468 13.652 43.4948 13.652C45.1428 13.652 46.0548 15.06 46.0548 16.628C46.0548 18.212 45.1428 19.62 43.4948 19.62ZM50.075 20.5H51.275V17.044H55.307V20.5H56.507V12.772H55.307V15.988H51.275V12.772H50.075V20.5ZM59.2551 16.628C59.2551 19.044 60.9031 20.692 63.1911 20.692C64.4551 20.692 65.4951 20.276 66.2631 19.508L65.6871 18.724C65.0791 19.348 64.1831 19.7 63.3031 19.7C61.6391 19.7 60.6151 18.484 60.5191 17.028H66.7751V16.724C66.7751 14.404 65.3991 12.58 63.0631 12.58C60.8551 12.58 59.2551 14.388 59.2551 16.628ZM63.0471 13.572C64.8071 13.572 65.5751 14.996 65.5911 16.148H60.5191C60.5831 14.964 61.3991 13.572 63.0471 13.572ZM69.5187 20.5H70.7187V17.044H74.7507V20.5H75.9507V12.772H74.7507V15.988H70.7187V12.772H69.5187V20.5ZM79.1469 20.5H80.3469V17.044H84.3789V20.5H85.5789V12.772H84.3789V15.988H80.3469V12.772H79.1469V20.5ZM89.975 12.772H88.775V20.5H92.759C94.487 20.5 95.303 19.252 95.303 18.02C95.303 16.788 94.503 15.54 92.759 15.54H89.975V12.772ZM96.567 20.5H97.767V12.772H96.567V20.5ZM89.975 16.596H92.663C93.655 16.596 94.071 17.252 94.071 18.02C94.071 18.788 93.639 19.444 92.663 19.444H89.975V16.596ZM100.518 16.628C100.518 19.044 102.166 20.692 104.454 20.692C105.718 20.692 106.758 20.276 107.526 19.508L106.95 18.724C106.342 19.348 105.446 19.7 104.566 19.7C102.902 19.7 101.878 18.484 101.782 17.028H108.038V16.724C108.038 14.404 106.662 12.58 104.326 12.58C102.118 12.58 100.518 14.388 100.518 16.628ZM104.31 13.572C106.07 13.572 106.838 14.996 106.854 16.148H101.782C101.846 14.964 102.662 13.572 104.31 13.572Z" fill="#231F20"/>
<path d="M120.5 15.5C120.5 7.49187 126.992 1 135 1H149C157.008 1 163.5 7.49187 163.5 15.5C163.5 23.5081 157.008 30 149 30H135C126.992 30 120.5 23.5081 120.5 15.5Z" stroke="#BFC5D2"/>
<path d="M130.437 19.5H131.841V11.496H130.617L128.313 13.824L129.129 14.676L130.437 13.32V19.5ZM135.246 18.408C135.894 19.176 136.842 19.644 138.222 19.644C140.01 19.644 141.27 18.6 141.27 16.932C141.27 15.3 140.058 14.352 138.714 14.352C137.946 14.352 137.286 14.664 136.902 15.048V12.732H140.742V11.496H135.498V15.972L136.494 16.26C136.998 15.78 137.562 15.564 138.246 15.564C139.23 15.564 139.854 16.128 139.854 16.992C139.854 17.772 139.218 18.396 138.21 18.396C137.31 18.396 136.59 18.06 136.05 17.448L135.246 18.408ZM142.369 19.5H148.165V18.264H144.613C146.761 16.644 148.117 15.324 148.117 13.848C148.117 12.252 146.761 11.376 145.213 11.376C144.097 11.376 142.969 11.808 142.261 12.66L143.077 13.584C143.581 13.008 144.301 12.624 145.237 12.624C145.969 12.624 146.689 13.008 146.689 13.848C146.689 15 145.477 16.044 142.369 18.396V19.5ZM153.058 19.5H154.462V17.688H155.53V16.452H154.462V11.496H152.53L149.242 16.56V17.688H153.058V19.5ZM153.058 12.756V16.452H150.622L153.058 12.756Z" fill="#F58220"/>
</svg>
