<svg width="22" height="24" viewBox="0 0 22 24" fill="none" xmlns="http://www.w3.org/2000/svg">
<rect x="0.5" y="10.125" width="20.0833" height="13.375" rx="1.5" stroke="#474C54" stroke-linejoin="round"/>
<path d="M17.25 9.625V7.70833C17.25 4.00342 14.2466 1 10.5417 1V1C6.83676 1 3.83334 4.00342 3.83334 7.70833V9.625" stroke="#474C54"/>
<path d="M14 10V7.5C14 5.567 12.433 4 10.5 4V4C8.567 4 7 5.567 7 7.5V10" stroke="#474C54"/>
<path d="M8.625 15.1305C8.625 14.0528 9.49967 13.1782 10.5774 13.1782C11.6551 13.1782 12.5298 14.0528 12.5298 15.1305C12.5298 15.6459 12.3279 16.1114 12 16.4586C11.7568 16.7161 11.5525 17.03 11.5508 17.3842L11.5405 19.4755C11.5379 20.0128 11.1016 20.4469 10.5643 20.4469V20.4469C10.0233 20.4469 9.5855 20.0069 9.58815 19.4659L9.59835 17.3907C9.60011 17.033 9.39503 16.7147 9.15027 16.4538C8.825 16.1071 8.625 15.6436 8.625 15.1305Z" stroke="#F58220"/>
</svg>
