<svg width="23" height="23" viewBox="0 0 23 23" fill="none" xmlns="http://www.w3.org/2000/svg">
<mask id="path-1-inside-1" fill="white">
<path d="M21.0202 14.2863C21.6807 14.0233 22.0109 13.8918 22.2398 13.7109C22.5729 13.4478 22.7955 13.1196 22.9167 12.7128C23 12.4333 23 12.1221 23 11.4997C23 10.8774 23 10.5663 22.9167 10.2867C22.7955 9.88008 22.5728 9.55174 22.2399 9.28868C22.011 9.10785 21.681 8.97641 21.0209 8.71354C20.4964 8.50461 20.2577 8.32173 20.0991 7.93883C19.9398 7.55548 19.9793 7.25551 20.2019 6.73762C20.4827 6.0844 20.6231 5.75779 20.6571 5.4688C20.7067 5.04626 20.6319 4.65676 20.4293 4.28268C20.2907 4.02682 20.0711 3.80727 19.632 3.36816C19.1939 2.93001 18.9748 2.71093 18.7192 2.5724C18.3452 2.36963 17.957 2.29486 17.5344 2.34417C17.2456 2.37786 16.9179 2.51827 16.2626 2.79908C15.7502 3.01862 15.4441 3.05997 15.0602 2.90087C14.679 2.7425 14.4946 2.50234 14.2866 1.98158C14.022 1.31913 13.8897 0.98791 13.7092 0.75965C13.4453 0.42587 13.118 0.204154 12.7102 0.0829126C12.4312 0 12.1206 0 11.4992 0C10.878 0 10.5674 0 10.2882 0.0830577C9.88082 0.204283 9.55206 0.427235 9.2887 0.760896C9.10827 0.989504 8.97695 1.31926 8.71433 1.97876C8.50577 2.50249 8.3224 2.74198 7.93883 2.90087C7.54797 3.06356 7.24196 3.02159 6.7349 2.80248C6.08378 2.52112 5.75821 2.38044 5.46868 2.34601C5.04649 2.29581 4.6549 2.37062 4.28095 2.5729C4.02449 2.71163 3.80583 2.9303 3.36849 3.36763C2.9292 3.80693 2.70955 4.02658 2.57093 4.28252C2.36837 4.65654 2.29363 5.0456 2.3432 5.46805C2.37712 5.75713 2.51764 6.08415 2.79868 6.73818C3.02104 7.25568 3.06017 7.55548 2.90087 7.93979C2.74196 8.32234 2.50301 8.50553 1.97937 8.71417C1.31929 8.97716 0.989246 9.10865 0.760705 9.28908C0.42698 9.55255 0.204263 9.88103 0.0830255 10.2886C0 10.5677 0 10.8784 0 11.4998C0 12.1211 0 12.4317 0.0829223 12.7106C0.204149 13.1184 0.42607 13.446 0.759819 13.7098C0.988113 13.8902 1.31904 14.0223 1.9809 14.2866C2.5023 14.4948 2.74239 14.6791 2.90087 15.0612C3.06066 15.447 3.02182 15.746 2.79953 16.2625C2.51847 16.9155 2.37793 17.242 2.34382 17.5309C2.29388 17.9538 2.36866 18.3438 2.57151 18.7182C2.71009 18.974 2.92951 19.1934 3.36835 19.6322C3.80474 20.0686 4.02294 20.2868 4.27877 20.4254C4.65308 20.6282 5.0434 20.703 5.46615 20.653C5.7551 20.6189 6.08166 20.4783 6.73479 20.1971C7.23898 19.98 7.5496 19.9368 7.93883 20.0991C8.32212 20.2581 8.50525 20.497 8.71402 21.0211C8.97682 21.6808 9.10822 22.0107 9.28872 22.2393C9.55207 22.5729 9.88065 22.7957 10.288 22.9169C10.5672 23 10.8779 23 11.4994 23C12.1199 23 12.4302 23 12.7089 22.9172C13.1165 22.7962 13.443 22.5754 13.707 22.2421C13.8876 22.0143 14.0205 21.6829 14.2864 21.02C14.4952 20.4994 14.6822 20.2567 15.0688 20.0953C15.4567 19.9349 15.7587 19.9768 16.2654 20.1966C16.9144 20.478 17.2389 20.6187 17.5287 20.6535C17.9508 20.7041 18.3439 20.6293 18.7179 20.4271C18.9746 20.2883 19.1935 20.0694 19.6313 19.6316C20.0705 19.1925 20.29 18.9729 20.4286 18.717C20.6313 18.343 20.706 17.9543 20.6565 17.5318C20.6227 17.2428 20.4821 16.9154 20.201 16.2607C19.9794 15.7445 19.9401 15.4439 20.0991 15.0602C20.2571 14.678 20.4959 14.4951 21.0202 14.2863Z"/>
</mask>
<path d="M20.0991 7.93883L21.0231 7.55629L21.0225 7.55503L20.0991 7.93883ZM15.0602 2.90087L14.6766 3.82436L14.6774 3.82469L15.0602 2.90087ZM7.93883 2.90087L7.55611 1.97701L7.55457 1.97765L7.93883 2.90087ZM2.90087 7.93979L3.82436 8.32341L3.82466 8.3227L2.90087 7.93979ZM2.90087 15.0612L3.82477 14.6785L3.82455 14.678L2.90087 15.0612ZM7.93883 20.0991L7.55396 21.0221L7.55566 21.0228L7.93883 20.0991ZM15.0688 20.0953L14.6868 19.1712L14.6837 19.1724L15.0688 20.0953ZM20.0991 15.0602L21.0229 15.4431L21.0233 15.4421L20.0991 15.0602ZM20.4286 18.717L21.3079 19.1934L20.4286 18.717ZM20.6565 17.5318L21.6497 17.4155L20.6565 17.5318ZM16.2654 20.1966L15.8675 21.114L16.2654 20.1966ZM17.5287 20.6535L17.4096 21.6464L17.5287 20.6535ZM18.7179 20.4271L18.2423 19.5474L18.7179 20.4271ZM12.7089 22.9172L12.9936 23.8759L12.7089 22.9172ZM13.707 22.2421L12.9233 21.6211L13.707 22.2421ZM9.28872 22.2393L10.0736 21.6197L9.28872 22.2393ZM10.288 22.9169L10.0027 23.8754L10.288 22.9169ZM4.27877 20.4254L3.80245 21.3047L4.27877 20.4254ZM6.73479 20.1971L6.33933 19.2786L6.73479 20.1971ZM5.46615 20.653L5.58352 21.6461L5.46615 20.653ZM1.9809 14.2866L1.61008 15.2153L1.9809 14.2866ZM0.759819 13.7098L0.139728 14.4943L0.759819 13.7098ZM2.57093 4.28252L1.69161 3.80629L2.57093 4.28252ZM2.79868 6.73818L1.8799 7.13297L2.79868 6.73818ZM2.3432 5.46805L1.35002 5.58459L2.3432 5.46805ZM5.46868 2.34601L5.58675 1.353L5.46868 2.34601ZM4.28095 2.5729L4.75674 3.45246L4.28095 2.5729ZM10.2882 0.0830577L10.5734 1.04153L10.2882 0.0830577ZM8.71433 1.97876L7.78528 1.6088L8.71433 1.97876ZM2.79953 16.2625L1.881 15.8671L2.79953 16.2625ZM2.34382 17.5309L1.35072 17.4137L2.34382 17.5309ZM2.57151 18.7182L3.45076 18.2418L2.57151 18.7182ZM18.7192 2.5724L19.1958 1.69325L18.7192 2.5724ZM16.2626 2.79908L15.8687 1.87991L16.2626 2.79908ZM17.5344 2.34417L17.6503 3.33743L17.5344 2.34417ZM20.2019 6.73762L21.1206 7.13254L20.2019 6.73762ZM20.6571 5.4688L21.6502 5.58556L20.6571 5.4688ZM20.4293 4.28268L21.3086 3.80637L20.4293 4.28268ZM14.2866 1.98158L13.3579 2.35252L14.2866 1.98158ZM13.7092 0.75965L14.4937 0.139474L13.7092 0.75965ZM12.7102 0.0829126L12.9951 -0.875631L12.7102 0.0829126ZM1.97937 8.71417L1.60924 7.78518L1.97937 8.71417ZM0.0830255 10.2886L-0.875462 10.0034L0.0830255 10.2886ZM22.9167 10.2867L23.875 10.0011L22.9167 10.2867ZM22.2399 9.28868L22.8598 8.50402L22.2399 9.28868ZM22.9167 12.7128L23.875 12.9985L22.9167 12.7128ZM22.2398 13.7109L22.8597 14.4956L22.2398 13.7109ZM21.3909 7.7845C21.1603 7.69264 21.0839 7.6405 21.0592 7.6201C21.0518 7.61403 21.0513 7.61257 21.0509 7.61204C21.0494 7.60994 21.0393 7.59554 21.0231 7.5563L19.1752 8.32137C19.3072 8.64031 19.4967 8.92375 19.7863 9.16275C20.0517 9.38175 20.357 9.52551 20.6509 9.64256L21.3909 7.7845ZM21.0225 7.55503C21.0063 7.51593 21.0032 7.49847 21.0027 7.49565C21.0025 7.49466 21.0019 7.49285 21.0028 7.48301C21.0059 7.45069 21.023 7.35961 21.1206 7.13254L19.2832 6.3427C19.1582 6.63352 19.0442 6.95137 19.0117 7.29435C18.9763 7.66817 19.0429 8.00308 19.1757 8.32264L21.0225 7.55503ZM15.8687 1.87991C15.6459 1.9754 15.5536 1.99313 15.5188 1.99644C15.5073 1.99753 15.5039 1.99682 15.5019 1.99648C15.4982 1.99587 15.4808 1.99269 15.443 1.97706L14.6774 3.82469C14.9999 3.95835 15.336 4.02276 15.7077 3.98749C16.05 3.95501 16.3669 3.8423 16.6564 3.71825L15.8687 1.87991ZM15.4438 1.97738C15.4054 1.96143 15.3911 1.95141 15.3887 1.94971C15.3877 1.94904 15.3858 1.94801 15.3793 1.94015C15.3584 1.91485 15.3062 1.83832 15.2152 1.61065L13.3579 2.35252C13.475 2.6456 13.6189 2.94953 13.8375 3.21409C14.0755 3.50214 14.3579 3.69197 14.6766 3.82436L15.4438 1.97738ZM7.78528 1.6088C7.69371 1.83875 7.64157 1.91513 7.62101 1.94003C7.61481 1.94754 7.61316 1.94832 7.61237 1.94888C7.61005 1.95053 7.59544 1.96072 7.55611 1.97701L8.32156 3.82474C8.64088 3.69245 8.92442 3.50274 9.1634 3.21323C9.38257 2.94773 9.52639 2.6425 9.64338 2.34872L7.78528 1.6088ZM7.55457 1.97765C7.51422 1.99444 7.4949 1.99818 7.49005 1.999C7.48693 1.99953 7.48354 2.00012 7.47301 1.99914C7.44043 1.99611 7.35116 1.9794 7.13156 1.88451L6.33823 3.72044C6.6257 3.84466 6.94297 3.95849 7.28788 3.99056C7.66157 4.0253 7.99934 3.95885 8.3231 3.8241L7.55457 1.97765ZM1.8799 7.13297C1.97728 7.35959 1.99427 7.45043 1.9973 7.48265C1.99823 7.49251 1.99761 7.49455 1.99738 7.49596C1.99682 7.49923 1.99354 7.51719 1.97709 7.55688L3.82466 8.3227C3.95696 8.00352 4.02367 7.66892 3.9885 7.29521C3.9562 6.95208 3.84243 6.63426 3.71745 6.34339L1.8799 7.13297ZM1.97739 7.55617C1.96109 7.5954 1.95092 7.60995 1.94928 7.61226C1.94873 7.61303 1.94796 7.61468 1.94044 7.62089C1.91553 7.64144 1.83914 7.69359 1.60924 7.78518L2.34949 9.64315C2.64324 9.52611 2.94814 9.38235 3.21335 9.16351C3.50254 8.92488 3.69206 8.64192 3.82436 8.32341L1.97739 7.55617ZM1.61008 15.2153C1.83818 15.3064 1.91466 15.3586 1.93987 15.3795C1.94767 15.3859 1.94867 15.3878 1.94934 15.3888C1.95107 15.3912 1.96115 15.4057 1.9772 15.4443L3.82455 14.678C3.69223 14.359 3.50246 14.0763 3.21409 13.8379C2.94928 13.619 2.64502 13.475 2.35172 13.3579L1.61008 15.2153ZM1.97698 15.4438C1.99378 15.4844 1.99723 15.5029 1.99784 15.5065C1.99813 15.5082 1.99871 15.5103 1.99782 15.5198C1.99488 15.5512 1.97825 15.6412 1.881 15.8671L3.71807 16.6578C3.84311 16.3673 3.95704 16.0495 3.98915 15.7058C4.02409 15.3318 3.9568 14.9973 3.82477 14.6785L1.97698 15.4438ZM7.13025 21.1156C7.34748 21.022 7.43811 21.0047 7.4727 21.0015C7.48444 21.0004 7.48864 21.0011 7.49199 21.0017C7.49686 21.0025 7.51547 21.006 7.55396 21.0221L8.32371 19.1762C7.99792 19.0403 7.65926 18.9755 7.28714 19.0101C6.94307 19.0422 6.62629 19.155 6.33933 19.2786L7.13025 21.1156ZM7.55566 21.0228C7.59515 21.0392 7.60983 21.0494 7.61217 21.0511C7.61295 21.0516 7.61456 21.0524 7.62071 21.0598C7.64118 21.0846 7.69331 21.1609 7.78501 21.3911L9.64304 20.651C9.52597 20.3571 9.38214 20.052 9.16303 19.7865C8.92406 19.4971 8.64072 19.3077 8.32201 19.1754L7.55566 21.0228ZM15.2145 21.3922C15.3054 21.1656 15.3582 21.0884 15.3802 21.0618C15.3875 21.0531 15.3906 21.0508 15.3933 21.0489C15.3974 21.046 15.4136 21.035 15.454 21.0181L14.6837 19.1724C14.3639 19.3059 14.0806 19.4962 13.8416 19.784C13.6213 20.0493 13.4762 20.3537 13.3582 20.6477L15.2145 21.3922ZM15.4509 21.0194C15.4908 21.0029 15.5093 20.9995 15.5132 20.9988C15.5153 20.9985 15.5177 20.9979 15.5274 20.9989C15.5587 21.0018 15.6471 21.0184 15.8675 21.114L16.6632 19.2791C16.3769 19.155 16.061 19.0407 15.7177 19.0079C15.3449 18.9723 15.0087 19.0381 14.6868 19.1712L15.4509 21.0194ZM21.1199 15.8662C21.023 15.6405 21.006 15.5496 21.0029 15.5171C21.002 15.507 21.0026 15.5048 21.0029 15.5034C21.0034 15.5001 21.0066 15.4824 21.0229 15.4431L19.1753 14.6773C19.0429 14.9967 18.9766 15.3313 19.0117 15.7044C19.044 16.0472 19.1574 16.3647 19.2821 16.6552L21.1199 15.8662ZM21.0233 15.4421C21.0394 15.4033 21.0493 15.3892 21.0506 15.3874C21.0508 15.3871 21.0513 15.3857 21.0586 15.3796C21.0833 15.3593 21.1597 15.3071 21.3902 15.2153L20.6503 13.3572C20.3565 13.4742 20.0513 13.618 19.786 13.8368C19.4964 14.0757 19.3068 14.3591 19.1749 14.6783L21.0233 15.4421ZM20.3384 20.3387C20.7336 19.9435 21.0835 19.6076 21.3079 19.1934L19.5493 18.2407C19.4965 18.3382 19.4073 18.4414 18.9242 18.9245L20.3384 20.3387ZM19.2821 16.6552C19.5928 17.3788 19.6507 17.5408 19.6633 17.6481L21.6497 17.4155C21.5946 16.9448 21.3714 16.452 21.1199 15.8662L19.2821 16.6552ZM21.3079 19.1934C21.6086 18.6382 21.7231 18.0426 21.6497 17.4155L19.6633 17.6481C19.6888 17.8661 19.6539 18.0478 19.5493 18.2407L21.3079 19.1934ZM15.8675 21.114C16.4484 21.3659 16.9378 21.5898 17.4096 21.6464L17.6477 19.6606C17.5399 19.6477 17.3804 19.5901 16.6632 19.2791L15.8675 21.114ZM18.9242 18.9245C18.4428 19.4059 18.3403 19.4944 18.2423 19.5474L19.1934 21.3068C19.609 21.0821 19.9443 20.7329 20.3384 20.3387L18.9242 18.9245ZM17.4096 21.6464C18.0369 21.7216 18.6376 21.6072 19.1934 21.3068L18.2423 19.5474C18.0501 19.6513 17.8647 19.6866 17.6477 19.6606L17.4096 21.6464ZM11.4994 24C12.0579 24 12.5424 24.0098 12.9936 23.8759L12.4242 21.9586C12.318 21.9902 12.182 22 11.4994 22V24ZM13.3582 20.6477C13.0644 21.3804 12.9903 21.5365 12.9233 21.6211L14.4908 22.8632C14.7849 22.4921 14.9766 21.9853 15.2145 21.3922L13.3582 20.6477ZM12.9936 23.8759C13.5982 23.6963 14.099 23.3576 14.4908 22.8632L12.9233 21.6211C12.7869 21.7932 12.6347 21.8961 12.4242 21.9586L12.9936 23.8759ZM7.78501 21.3911C8.02018 21.9815 8.20993 22.4867 8.50386 22.859L10.0736 21.6197C10.0065 21.5347 9.93346 21.3802 9.64304 20.651L7.78501 21.3911ZM11.4994 22C10.8157 22 10.6796 21.9901 10.5732 21.9585L10.0027 23.8754C10.4547 24.0099 10.9401 24 11.4994 24V22ZM8.50386 22.859C8.89487 23.3543 9.39795 23.6954 10.0027 23.8754L10.5732 21.9585C10.3634 21.896 10.2093 21.7915 10.0736 21.6197L8.50386 22.859ZM2.66124 20.3393C3.05413 20.7322 3.38839 21.0804 3.80245 21.3047L4.7551 19.5461C4.6575 19.4933 4.55536 19.405 4.07545 18.9251L2.66124 20.3393ZM6.33933 19.2786C5.6175 19.5894 5.45612 19.6473 5.34879 19.66L5.58352 21.6461C6.05408 21.5905 6.54583 21.3672 7.13025 21.1156L6.33933 19.2786ZM3.80245 21.3047C4.35817 21.6057 4.95587 21.7203 5.58352 21.6461L5.34879 19.66C5.13093 19.6857 4.94798 19.6506 4.7551 19.5461L3.80245 21.3047ZM-1 11.4998C-1 12.0589 -1.00987 12.544 -0.875617 12.9956L1.04146 12.4257C1.00987 12.3194 1 12.1832 1 11.4998H-1ZM2.35172 13.3579C1.62021 13.0658 1.46468 12.9922 1.37991 12.9252L0.139728 14.4943C0.511543 14.7882 1.01788 14.9789 1.61008 15.2153L2.35172 13.3579ZM-0.875617 12.9956C-0.695706 13.6008 -0.355586 14.1028 0.139728 14.4943L1.37991 12.9252C1.20773 12.7891 1.104 12.636 1.04146 12.4257L-0.875617 12.9956ZM2.66139 2.66052C2.26604 3.05587 1.91603 3.39192 1.69161 3.80629L3.45025 4.75875C3.50307 4.66123 3.59235 4.55799 4.0756 4.07474L2.66139 2.66052ZM3.71745 6.34339C3.40684 5.62055 3.34899 5.45888 3.33639 5.35151L1.35002 5.58459C1.40526 6.05538 1.62844 6.54775 1.8799 7.13297L3.71745 6.34339ZM1.69161 3.80629C1.39094 4.36146 1.27644 4.95753 1.35002 5.58459L3.33639 5.35151C3.31083 5.13366 3.34579 4.95163 3.45025 4.75875L1.69161 3.80629ZM7.13156 1.88451C6.54887 1.63272 6.05818 1.40906 5.58675 1.353L5.35061 3.33901C5.45824 3.35181 5.61868 3.40951 6.33823 3.72044L7.13156 1.88451ZM4.0756 4.07474C4.55654 3.5938 4.65891 3.50538 4.75674 3.45246L3.80516 1.69334C3.39008 1.91788 3.05511 2.2668 2.66139 2.66052L4.0756 4.07474ZM5.58675 1.353C4.95965 1.27844 4.36062 1.39287 3.80516 1.69334L4.75674 3.45246C4.94919 3.34836 5.13334 3.31318 5.35061 3.33901L5.58675 1.353ZM11.4992 -1C10.9401 -1 10.455 -1.00988 10.003 -0.875413L10.5734 1.04153C10.6798 1.00988 10.8158 1 11.4992 1V-1ZM9.64338 2.34872C9.93361 1.61988 10.0066 1.46541 10.0737 1.38045L8.50375 0.141344C8.20993 0.513601 8.0203 1.01863 7.78528 1.6088L9.64338 2.34872ZM10.003 -0.875413C9.3981 -0.695413 8.89478 -0.35409 8.50375 0.141344L10.0737 1.38045C10.2093 1.20856 10.3635 1.10398 10.5734 1.04153L10.003 -0.875413ZM1.881 15.8671C1.6295 16.4515 1.40628 16.9432 1.35072 17.4137L3.33692 17.6482C3.34959 17.5409 3.40744 17.3795 3.71807 16.6578L1.881 15.8671ZM4.07545 18.9251C3.59272 18.4424 3.50357 18.3393 3.45076 18.2418L1.69225 19.1945C1.91661 19.6086 2.26629 19.9444 2.66124 20.3393L4.07545 18.9251ZM1.35072 17.4137C1.27659 18.0414 1.39114 18.6387 1.69225 19.1945L3.45076 18.2418C3.34619 18.0488 3.31117 17.8662 3.33692 17.6482L1.35072 17.4137ZM20.3391 2.66105C19.9448 2.2667 19.6095 1.91752 19.1958 1.69325L18.2427 3.45155C18.3401 3.50434 18.443 3.59331 18.9249 4.07527L20.3391 2.66105ZM16.6564 3.71825C17.3808 3.40788 17.5431 3.34994 17.6503 3.33743L17.4185 1.35091C16.9482 1.40578 16.4551 1.62865 15.8687 1.87991L16.6564 3.71825ZM19.1958 1.69325C18.6407 1.39236 18.0456 1.27774 17.4185 1.35091L17.6503 3.33743C17.8684 3.31198 18.0496 3.3469 18.2427 3.45155L19.1958 1.69325ZM21.1206 7.13254C21.3719 6.54803 21.5949 6.05619 21.6502 5.58556L19.6639 5.35204C19.6513 5.45939 19.5935 5.62077 19.2832 6.3427L21.1206 7.13254ZM18.9249 4.07527C19.408 4.5583 19.4972 4.66149 19.55 4.75898L21.3086 3.80637C21.0842 3.39215 20.7343 3.05623 20.3391 2.66105L18.9249 4.07527ZM21.6502 5.58556C21.724 4.95832 21.6094 4.36169 21.3086 3.80637L19.55 4.75898C19.6545 4.95184 19.6895 5.1342 19.6639 5.35204L21.6502 5.58556ZM15.2152 1.61065C14.9785 1.01793 14.7876 0.51125 14.4937 0.139474L12.9247 1.37982C12.9917 1.46457 13.0654 1.62034 13.3579 2.35252L15.2152 1.61065ZM11.4992 1C12.1827 1 12.319 1.00987 12.4252 1.04146L12.9951 -0.875631C12.5435 -1.00987 12.0584 -1 11.4992 -1V1ZM14.4937 0.139474C14.1021 -0.355832 13.6003 -0.695718 12.9951 -0.875631L12.4252 1.04146C12.6357 1.10402 12.7886 1.20757 12.9247 1.37982L14.4937 0.139474ZM1.60924 7.78518C1.01857 8.02052 0.513223 8.21038 0.141058 8.5042L1.38035 10.074C1.46527 10.0069 1.62 9.93379 2.34949 9.64315L1.60924 7.78518ZM1 11.4998C1 10.8162 1.00988 10.68 1.04151 10.5737L-0.875462 10.0034C-1.00988 10.4553 -1 10.9405 -1 11.4998H1ZM0.141058 8.5042C-0.354407 8.89536 -0.695467 9.39838 -0.875462 10.0034L1.04151 10.5737C1.10399 10.3637 1.20837 10.2097 1.38035 10.074L0.141058 8.5042ZM24 11.4997C24 10.9397 24.0099 10.4537 23.875 10.0011L21.9583 10.5724C21.9901 10.6789 22 10.8152 22 11.4997H24ZM20.6509 9.64256C21.3804 9.93307 21.5349 10.0061 21.6199 10.0733L22.8598 8.50402C22.4871 8.20957 21.9816 8.01974 21.3909 7.7845L20.6509 9.64256ZM23.875 10.0011C23.6951 9.39726 23.3542 8.89466 22.8598 8.50402L21.6199 10.0733C21.7914 10.2088 21.8959 10.3629 21.9583 10.5724L23.875 10.0011ZM22 11.4997C22 12.1844 21.9901 12.3207 21.9583 12.4272L23.875 12.9985C24.0099 12.5459 24 12.0598 24 11.4997H22ZM21.3902 15.2153C21.9812 14.98 22.487 14.7901 22.8597 14.4956L21.6199 12.9263C21.5349 12.9935 21.3802 13.0666 20.6503 13.3572L21.3902 15.2153ZM21.9583 12.4272C21.8959 12.6368 21.7915 12.7907 21.6199 12.9263L22.8597 14.4956C23.3543 14.1049 23.695 13.6024 23.875 12.9985L21.9583 12.4272Z" fill="#474C54" mask="url(#path-1-inside-1)"/>
<circle cx="11.5" cy="11.5" r="2.95" stroke="#F58220"/>
</svg>
