<svg width="26" height="20" viewBox="0 0 26 20" fill="none" xmlns="http://www.w3.org/2000/svg">
<path d="M18.3947 12.1138C21.2747 12.5312 24.9999 13.8772 24.9999 16.152V16.152C24.9999 17.8809 23.5984 19.2825 21.8695 19.2825H20.826H18.7391" stroke="#F58220" stroke-linecap="round"/>
<path d="M9.34783 8.84783C11.653 8.84783 13.5217 6.9791 13.5217 4.67391C13.5217 2.36872 11.653 0.5 9.34783 0.5C7.04264 0.5 5.17392 2.36872 5.17392 4.67391C5.17392 6.9791 7.04264 8.84783 9.34783 8.84783Z" stroke="#474C54"/>
<path d="M15.2643 0.750435C15.7025 0.604348 16.1617 0.5 16.6521 0.5C18.9582 0.5 20.826 2.36783 20.826 4.67391C20.826 6.98 18.9582 8.84783 16.6521 8.84783C16.1617 8.84783 15.7025 8.74348 15.2643 8.59739" stroke="#F58220" stroke-linecap="round"/>
<path fill-rule="evenodd" clip-rule="evenodd" d="M9.34783 11.9783C6.56174 11.9783 1 13.3765 1 16.1522V16.1522C1 17.8811 2.40154 19.2826 4.13043 19.2826H14.5652C16.2941 19.2826 17.6957 17.8811 17.6957 16.1522V16.1522C17.6957 13.3765 12.1339 11.9783 9.34783 11.9783Z" stroke="#474C54"/>
</svg>
