<svg width="24" height="25" viewBox="0 0 24 25" fill="none" xmlns="http://www.w3.org/2000/svg">
<path d="M2.95403 4.65881L20.9088 4.65881C22.0134 4.65881 22.9088 5.55424 22.9088 6.65881L22.9088 18.3408C22.9088 19.4453 22.0134 20.3408 20.9088 20.3408L2.95403 20.3408C1.84947 20.3408 0.954035 19.4453 0.954035 18.3408L0.954035 6.65881C0.954035 5.55424 1.84946 4.65881 2.95403 4.65881Z" stroke="#474C54" stroke-linecap="round"/>
<path d="M19.2485 8.31818L14.4194 13.1473C13.4128 14.1539 12.9095 14.6572 12.3051 14.7725C12.0575 14.8197 11.8032 14.8197 11.5556 14.7725C10.9512 14.6572 10.4479 14.1539 9.44136 13.1473L4.61222 8.31818" stroke="#F58220" stroke-linecap="round"/>
<path d="M4.61298 16.6822L8.79465 12.5005M19.2493 16.6822L15.0676 12.5005" stroke="#F58220" stroke-linecap="round"/>
</svg>
