<svg width="29" height="25" viewBox="0 0 29 25" fill="none" xmlns="http://www.w3.org/2000/svg">
<path d="M7.04701 8.49839C6.91792 7.59474 7.61911 6.78625 8.53193 6.78625H25.7419C26.6986 6.78625 27.4109 7.66994 27.2076 8.60489L24.8958 19.2396C24.7459 19.9291 24.1357 20.421 23.43 20.421H10.0512C9.3047 20.421 8.67182 19.8721 8.56626 19.1331L7.04701 8.49839Z" stroke="#474C54" stroke-linejoin="round"/>
<path d="M12.4979 11.3523C12.4979 12.5189 13.3384 13.4095 14.6179 13.4095C15.9099 13.4095 16.7504 12.5189 16.7504 11.3523C16.7504 10.1731 15.9099 9.24487 14.6179 9.24487C13.3384 9.24487 12.4979 10.1731 12.4979 11.3523ZM14.1921 17.1272C14.0235 17.3912 14.2131 17.7372 14.5263 17.7372C14.6615 17.7372 14.7874 17.6683 14.8603 17.5544L19.7042 9.98804C19.8752 9.72091 19.6834 9.37031 19.3662 9.37031C19.2292 9.37031 19.1017 9.44018 19.0279 9.55563L14.1921 17.1272ZM15.6089 11.3523C15.6089 12.0046 15.1949 12.4311 14.6179 12.4311C14.0534 12.4311 13.6269 12.0046 13.6269 11.3523C13.6269 10.6498 14.0534 10.2359 14.6179 10.2359C15.1949 10.2359 15.6089 10.6498 15.6089 11.3523ZM17.1016 15.818C17.1016 16.9846 17.9421 17.8877 19.2216 17.8877C20.501 17.8877 21.354 16.9846 21.354 15.818C21.354 14.6388 20.501 13.7106 19.2216 13.7106C17.9421 13.7106 17.1016 14.6388 17.1016 15.818ZM20.2251 15.818C20.2251 16.4953 19.7986 16.9093 19.2216 16.9093C18.6445 16.9093 18.2306 16.4953 18.2306 15.818C18.2306 15.128 18.6445 14.7015 19.2216 14.7015C19.7986 14.7015 20.2251 15.128 20.2251 15.818Z" fill="#F58220"/>
<path d="M7.81511 13.7467L6.02302 3.89021C5.85012 2.93923 5.02185 2.24798 4.05528 2.24798L1 2.24798" stroke="#474C54" stroke-linecap="round" stroke-linejoin="round"/>
<circle cx="12.4989" cy="22.0907" r="1.59067" stroke="#474C54"/>
<circle cx="20.9051" cy="22.0907" r="1.59067" stroke="#474C54"/>
</svg>
