<svg width="21" height="18" viewBox="0 0 21 18" fill="none" xmlns="http://www.w3.org/2000/svg">
<path d="M8 8.5C7.72386 8.5 7.5 8.72386 7.5 9C7.5 9.27614 7.72386 9.5 8 9.5L8 8.5ZM19.6265 9.5C19.9026 9.5 20.1265 9.27614 20.1265 9C20.1265 8.72386 19.9026 8.5 19.6265 8.5L19.6265 9.5ZM16.2779 12.1537C16.0866 12.3528 16.093 12.6693 16.2922 12.8606C16.4913 13.0519 16.8078 13.0455 16.9991 12.8463L16.2779 12.1537ZM20 9L20.3606 9.34635C20.5465 9.15284 20.5465 8.84716 20.3606 8.65365L20 9ZM16.9991 5.15365C16.8078 4.95449 16.4913 4.9481 16.2922 5.13938C16.093 5.33066 16.0866 5.64718 16.2779 5.84635L16.9991 5.15365ZM8 9.5L19.6265 9.5L19.6265 8.5L8 8.5L8 9.5ZM16.9991 12.8463L20.3606 9.34635L19.6394 8.65365L16.2779 12.1537L16.9991 12.8463ZM20.3606 8.65365L16.9991 5.15365L16.2779 5.84635L19.6394 9.34635L20.3606 8.65365Z" fill="#F58220"/>
<path d="M13 3.96532C13 3.44655 13 2.94855 13 2.49982C13 1.39525 12.1046 0.5 11 0.5L3 0.5C1.89543 0.5 1 1.39543 1 2.5L1 15.5C1 16.6046 1.89543 17.5 3 17.5L11 17.5C12.1046 17.5 13 16.6046 13 15.5L13 14.0347" stroke="#474C54" stroke-linecap="round"/>
</svg>
