<svg width="18" height="22" viewBox="0 0 18 22" fill="none" xmlns="http://www.w3.org/2000/svg">
<path d="M10.8617 19.9166C10.8617 20.5149 10.1343 20.9998 9.23691 20.9998C8.33955 20.9998 7.61209 20.5149 7.61209 19.9166" stroke="#F58220" stroke-linecap="round" stroke-linejoin="round"/>
<path d="M10.9191 2.33797C10.9152 2.91833 10.8485 3.24057 10.7714 3.41421C10.7098 3.55294 10.6543 3.57602 10.5977 3.59121C10.492 3.6196 10.3324 3.61639 10.0454 3.58256C10.0018 3.57742 9.95542 3.57161 9.90678 3.56552C9.66951 3.53579 9.37773 3.49923 9.0778 3.49923C8.77832 3.49923 8.48618 3.53569 8.24817 3.56539C8.19907 3.57152 8.15227 3.57736 8.10819 3.58253C7.82 3.61635 7.65852 3.6197 7.55132 3.59106C7.49335 3.57557 7.4384 3.55228 7.37792 3.41528C7.30177 3.24273 7.23651 2.92141 7.23651 2.34129C7.23651 1.32437 8.06088 0.5 9.0778 0.5C10.0978 0.5 10.9258 1.32669 10.9191 2.33797Z" stroke="#474C54"/>
<path d="M16.1016 13.6145L15.6075 13.6905C15.6132 13.7281 15.6233 13.7649 15.6374 13.8002L16.1016 13.6145ZM2.05391 13.6145L2.51815 13.8002C2.53227 13.7649 2.54232 13.7281 2.5481 13.6905L2.05391 13.6145ZM15.3715 8.86841L15.8657 8.79238L15.3715 8.86841ZM2.78408 8.86841L2.2899 8.79238L2.78408 8.86841ZM1.42811 17.6899L1.51707 17.1978L1.42811 17.6899ZM0.845173 16.6364L0.380935 16.4507L0.845173 16.6364ZM17.3054 16.624L17.7697 16.4383L17.3054 16.624ZM16.7121 17.6803L16.6288 17.1873L16.7121 17.6803ZM14.8773 8.94444L15.6075 13.6905L16.5958 13.5385L15.8657 8.79238L14.8773 8.94444ZM2.5481 13.6905L3.27827 8.94444L2.2899 8.79238L1.55973 13.5385L2.5481 13.6905ZM9.07778 3.96893C11.9739 3.96893 14.4369 6.08197 14.8773 8.94444L15.8657 8.79238C15.3502 5.44208 12.4675 2.96893 9.07778 2.96893V3.96893ZM9.07778 2.96893C5.68806 2.96893 2.80533 5.44208 2.2899 8.79238L3.27827 8.94444C3.71865 6.08197 6.18163 3.96893 9.07778 3.96893V2.96893ZM15.6374 13.8002L16.8412 16.8097L17.7697 16.4383L16.5659 13.4288L15.6374 13.8002ZM16.6288 17.1873C10.3727 18.2439 7.49619 18.2788 1.51707 17.1978L1.33916 18.1819C7.44292 19.2854 10.4365 19.2473 16.7953 18.1733L16.6288 17.1873ZM1.30941 16.8221L2.51815 13.8002L1.58968 13.4288L0.380935 16.4507L1.30941 16.8221ZM1.51707 17.1978C1.34547 17.1668 1.24432 16.9848 1.30941 16.8221L0.380935 16.4507C0.0811636 17.2001 0.543993 18.0381 1.33916 18.1819L1.51707 17.1978ZM16.8412 16.8097C16.9067 16.9735 16.8036 17.1578 16.6288 17.1873L16.7953 18.1733C17.5978 18.0378 18.0723 17.1948 17.7697 16.4383L16.8412 16.8097Z" fill="#474C54"/>
</svg>
