<svg width="155" height="31" viewBox="0 0 155 31" fill="none" xmlns="http://www.w3.org/2000/svg">
<path d="M1.248 9.828V20.5H2.528L8.752 11.716V20.5H10.08V9.828H8.72L2.576 18.452V9.828H1.248ZM12.8801 16.628C12.8801 18.932 14.4321 20.692 16.7361 20.692C18.1441 20.692 18.9761 20.116 19.5681 19.348L18.7681 18.612C18.2561 19.3 17.6001 19.62 16.8001 19.62C15.1521 19.62 14.1281 18.34 14.1281 16.628C14.1281 14.916 15.1521 13.652 16.8001 13.652C17.6001 13.652 18.2561 13.956 18.7681 14.66L19.5681 13.924C18.9761 13.156 18.1441 12.58 16.7361 12.58C14.4321 12.58 12.8801 14.34 12.8801 16.628ZM27.282 20.5H28.482V12.772H22.05V20.5H23.25V13.828H27.282V20.5ZM35.0541 20.692C37.4061 20.692 38.8781 18.868 38.8781 16.628C38.8781 14.388 37.4061 12.58 35.0541 12.58C32.7021 12.58 31.2301 14.388 31.2301 16.628C31.2301 18.868 32.7021 20.692 35.0541 20.692ZM35.0541 19.62C33.4061 19.62 32.4781 18.212 32.4781 16.628C32.4781 15.06 33.4061 13.652 35.0541 13.652C36.7021 13.652 37.6141 15.06 37.6141 16.628C37.6141 18.212 36.7021 19.62 35.0541 19.62ZM40.5036 19.524V20.692C41.9916 20.692 43.0476 19.62 43.4476 14.66L43.5276 13.828H46.6476V20.5H47.8476V12.772H42.4876L42.3276 14.596C41.9756 18.564 41.3196 19.524 40.5036 19.524ZM51.0438 20.5H52.2438V17.044H56.2758V20.5H57.4758V12.772H56.2758V15.988H52.2438V12.772H51.0438V20.5ZM60.2239 16.628C60.2239 19.044 61.8719 20.692 64.1599 20.692C65.4239 20.692 66.4639 20.276 67.2319 19.508L66.6559 18.724C66.0479 19.348 65.1519 19.7 64.2719 19.7C62.6079 19.7 61.5839 18.484 61.4879 17.028H67.7439V16.724C67.7439 14.404 66.3679 12.58 64.0319 12.58C61.8239 12.58 60.2239 14.388 60.2239 16.628ZM64.0159 13.572C65.7759 13.572 66.5439 14.996 66.5599 16.148H61.4879C61.5519 14.964 62.3679 13.572 64.0159 13.572ZM70.4875 20.5H71.6875V17.044H75.7195V20.5H76.9195V12.772H75.7195V15.988H71.6875V12.772H70.4875V20.5ZM80.1156 20.5H81.3156V17.044H85.3476V20.5H86.5476V12.772H85.3476V15.988H81.3156V12.772H80.1156V20.5ZM90.9437 12.772H89.7437V20.5H93.7277C95.4557 20.5 96.2717 19.252 96.2717 18.02C96.2717 16.788 95.4717 15.54 93.7277 15.54H90.9437V12.772ZM97.5357 20.5H98.7357V12.772H97.5357V20.5ZM90.9437 16.596H93.6317C94.6237 16.596 95.0397 17.252 95.0397 18.02C95.0397 18.788 94.6077 19.444 93.6317 19.444H90.9437V16.596ZM101.486 16.628C101.486 19.044 103.134 20.692 105.422 20.692C106.686 20.692 107.726 20.276 108.494 19.508L107.918 18.724C107.31 19.348 106.414 19.7 105.534 19.7C103.87 19.7 102.846 18.484 102.75 17.028H109.006V16.724C109.006 14.404 107.63 12.58 105.294 12.58C103.086 12.58 101.486 14.388 101.486 16.628ZM105.278 13.572C107.038 13.572 107.806 14.996 107.822 16.148H102.75C102.814 14.964 103.63 13.572 105.278 13.572Z" fill="#231F20"/>
<path d="M118.5 15.5C118.5 7.49187 124.992 1 133 1H140C148.008 1 154.5 7.49187 154.5 15.5C154.5 23.5081 148.008 30 140 30H133C124.992 30 118.5 23.5081 118.5 15.5Z" stroke="#BFC5D2"/>
<path d="M126.866 19.5H132.662V18.264H129.11C131.258 16.644 132.614 15.324 132.614 13.848C132.614 12.252 131.258 11.376 129.71 11.376C128.594 11.376 127.466 11.808 126.758 12.66L127.574 13.584C128.078 13.008 128.798 12.624 129.734 12.624C130.466 12.624 131.186 13.008 131.186 13.848C131.186 15 129.974 16.044 126.866 18.396V19.5ZM134.002 19.5H139.798V18.264H136.246C138.394 16.644 139.75 15.324 139.75 13.848C139.75 12.252 138.394 11.376 136.846 11.376C135.73 11.376 134.602 11.808 133.894 12.66L134.71 13.584C135.214 13.008 135.934 12.624 136.87 12.624C137.602 12.624 138.322 13.008 138.322 13.848C138.322 15 137.11 16.044 134.002 18.396V19.5ZM141.211 18.408C141.859 19.176 142.807 19.644 144.187 19.644C145.975 19.644 147.235 18.6 147.235 16.932C147.235 15.3 146.023 14.352 144.679 14.352C143.911 14.352 143.251 14.664 142.867 15.048V12.732H146.707V11.496H141.463V15.972L142.459 16.26C142.963 15.78 143.527 15.564 144.211 15.564C145.195 15.564 145.819 16.128 145.819 16.992C145.819 17.772 145.183 18.396 144.175 18.396C143.275 18.396 142.555 18.06 142.015 17.448L141.211 18.408Z" fill="#F58220"/>
</svg>
