<svg width="147" height="58" viewBox="0 0 147 58" fill="none" xmlns="http://www.w3.org/2000/svg">
<path fill-rule="evenodd" clip-rule="evenodd" d="M27.5778 17.3737V21.6563H13.4677C12.2214 21.6512 11.0259 21.1611 10.1347 20.2897C9.24344 19.4184 8.72636 18.2343 8.69299 16.9882V13.9689C8.69298 13.3429 8.81664 12.723 9.05685 12.1448C9.29706 11.5667 9.64911 11.0417 10.0928 10.5999C10.5364 10.1582 11.063 9.80853 11.6421 9.5709C12.2213 9.33326 12.8417 9.21238 13.4677 9.2152H27.5992C28.167 9.2152 28.7116 9.44081 29.1132 9.84238C29.5147 10.244 29.7403 10.7886 29.7403 11.3565C29.7403 11.9244 29.5147 12.4691 29.1132 12.8707C28.7116 13.2723 28.167 13.4979 27.5992 13.4979H12.3115V17.3737H27.5778ZM13.4677 0.5H28.3272C31.1768 0.670873 33.8584 1.90565 35.8411 3.95985C37.8237 6.01404 38.9628 8.73789 39.0328 11.5921C38.9843 13.7929 38.3074 15.934 37.082 17.7627C35.8567 19.5915 34.1339 21.0316 32.117 21.9133L27.5778 17.3737C28.3663 17.3937 29.1509 17.2556 29.8853 16.9675C30.6197 16.6795 31.2889 16.2473 31.8537 15.6965C32.4184 15.1457 32.8671 14.4874 33.1734 13.7604C33.4797 13.0335 33.6374 12.2525 33.6372 11.4636C33.609 9.87894 32.9568 8.36939 31.8223 7.26281C30.6878 6.15623 29.1625 5.542 27.5778 5.55353H13.4677C11.236 5.55353 9.09571 6.44015 7.51766 8.01835C5.93961 9.59655 5.05307 11.737 5.05307 13.9689V16.9882C5.05307 19.2201 5.93961 21.3606 7.51766 22.9388C9.09571 24.517 11.236 25.4036 13.4677 25.4036H27.5992V30.4786H13.4677C9.89388 30.4729 6.46837 29.0491 3.9433 26.5198C1.41823 23.9905 -4.50217e-06 20.5624 0 16.9882L0 13.9689C0.00566237 10.3985 1.4264 6.97591 3.95086 4.45122C6.47531 1.92653 9.89759 0.505663 13.4677 0.5V0.5Z" fill="#232021"/>
<path fill-rule="evenodd" clip-rule="evenodd" d="M33.2942 29.3864H38.54C38.54 27.5448 37.6621 26.5812 35.992 26.5812C34.3219 26.5812 33.4441 27.3735 33.1871 29.3864H33.2942ZM40.0816 35.6176C38.9272 36.0926 37.6898 36.3328 36.4416 36.3243C33.1443 36.3243 31.2173 35.0609 31.2173 30.6712C31.2173 26.9024 32.973 24.9324 36.1205 24.9324C36.7497 24.887 37.3812 24.9812 37.9697 25.2083C38.5583 25.4354 39.0895 25.7897 39.5252 26.2459C39.9609 26.7022 40.2905 27.249 40.4903 27.8474C40.6901 28.4459 40.7553 29.0811 40.6811 29.7076C40.6679 30.117 40.625 30.5249 40.5526 30.9281H33.2514C33.2514 33.9902 34.6003 34.6541 36.5915 34.6541C37.6574 34.6268 38.7124 34.4316 39.7176 34.0759L40.0816 35.6176Z" fill="#232021"/>
<path fill-rule="evenodd" clip-rule="evenodd" d="M49.2886 36.1102L46.4409 32.0203L43.636 36.1102H41.1737L45.3489 30.4999L41.4092 25.1466H43.8501L46.5694 29.0866L49.2029 25.1466H51.5796L47.6185 30.4999L51.7509 36.1102H49.2886Z" fill="#232021"/>
<path fill-rule="evenodd" clip-rule="evenodd" d="M55.0917 27.031V34.3972C55.8806 34.6078 56.6947 34.7087 57.5112 34.697C59.8664 34.697 60.4873 32.8983 60.4873 30.4143C60.4873 28.4443 60.1448 26.5171 57.7253 26.5171C56.8297 26.512 55.9395 26.6567 55.0917 26.9454V27.031ZM55.0917 40.5H52.9506V25.1467H55.0917V25.8961C56.0039 25.2326 57.1119 24.8934 58.2392 24.9325C61.4294 24.9325 62.5214 27.5664 62.5214 30.4143C62.5214 33.712 61.1725 36.3244 57.7039 36.3244C56.7704 36.3293 55.8505 36.1011 55.0275 35.6606L55.0917 40.5Z" fill="#232021"/>
<path fill-rule="evenodd" clip-rule="evenodd" d="M69.6929 26.7739C68.4566 26.72 67.2214 26.9017 66.053 27.3092V36.1315H64.0189V25.1465H66.0316V25.9816H66.16C67.1747 25.2377 68.4151 24.8671 69.6715 24.9323L69.6929 26.7739Z" fill="#232021"/>
<path fill-rule="evenodd" clip-rule="evenodd" d="M72.3706 29.3865H77.7234C77.7234 27.5449 76.8455 26.5813 75.1755 26.5813C73.5054 26.5813 72.6275 27.3736 72.3706 29.3865ZM79.2222 35.6177C78.0677 36.0921 76.8304 36.3323 75.5823 36.3244C72.2849 36.3244 70.3579 35.061 70.3579 30.6712C70.3579 26.9025 72.1136 24.9325 75.2611 24.9325C75.896 24.8621 76.5386 24.9392 77.1389 25.1577C77.7392 25.3761 78.281 25.7301 78.7222 26.1921C79.1635 26.6541 79.4922 27.2116 79.6829 27.8213C79.8736 28.4311 79.9211 29.0766 79.8217 29.7077C79.8089 30.1171 79.7659 30.5251 79.6932 30.9282H72.3277C72.3277 33.9903 73.6767 34.6541 75.6679 34.6541C76.7267 34.6249 77.7743 34.4299 78.7726 34.076L79.2222 35.6177Z" fill="#232021"/>
<path fill-rule="evenodd" clip-rule="evenodd" d="M81.7917 34.0333C82.8012 34.4062 83.8636 34.6159 84.9391 34.6543C86.3094 34.6543 87.4014 34.2046 87.4014 33.1125C87.4014 32.0205 86.1595 31.5708 84.7678 31.2282C83.0121 30.8427 81.4705 30.0505 81.4705 28.0376C81.4705 26.0248 83.1406 24.9327 85.7527 24.9327C86.8228 24.9857 87.8811 25.1801 88.9002 25.5108L88.5148 27.2239C87.6049 26.8387 86.6329 26.621 85.6457 26.5815C84.2968 26.5815 83.5046 27.074 83.5046 27.9305C83.5046 28.7871 84.832 29.3224 86.0097 29.6436C87.7654 30.1361 89.3927 30.6928 89.3927 32.9412C89.3927 35.1896 87.4228 36.3245 84.832 36.3245C83.6692 36.2878 82.5167 36.0934 81.4062 35.7464L81.7917 34.0333Z" fill="#232021"/>
<path fill-rule="evenodd" clip-rule="evenodd" d="M91.3201 34.0333C92.3362 34.4088 93.4062 34.6185 94.4889 34.6543C95.8378 34.6543 96.9512 34.2046 96.9512 33.1125C96.9512 32.0205 95.7308 31.5708 94.3176 31.2282C92.5619 30.8427 91.0203 30.0505 91.0203 28.0376C91.0203 26.0248 92.6904 24.9327 95.3026 24.9327C96.3725 24.9867 97.4307 25.181 98.45 25.5108L98.0646 27.2239C97.1601 26.8485 96.1956 26.6382 95.2169 26.6029C93.8466 26.6029 93.0758 27.0954 93.0758 27.9519C93.0758 28.8085 94.3819 29.3438 95.5809 29.665C97.3366 30.1575 98.9639 30.7143 98.9639 32.9627C98.9639 35.2111 96.9941 36.346 94.4033 36.346C93.2404 36.3093 92.088 36.1148 90.9775 35.7678L91.3201 34.0333Z" fill="#232021"/>
<path fill-rule="evenodd" clip-rule="evenodd" d="M102.773 27.0309V34.3971C103.468 34.6121 104.188 34.7345 104.915 34.7611C107.42 34.7611 108.062 32.9624 108.062 30.4785C108.062 28.5085 107.762 26.5813 105.129 26.5813C104.289 26.5766 103.455 26.7216 102.666 27.0095L102.773 27.0309ZM100.632 20.7569L102.773 20.5427V25.8532C103.699 25.2389 104.789 24.918 105.899 24.9324C109.047 24.9324 110.182 27.5663 110.182 30.4142C110.182 33.7119 108.683 36.3243 105.043 36.3243C103.537 36.2529 102.051 35.957 100.632 35.4464V20.7569Z" fill="#232021"/>
<path fill-rule="evenodd" clip-rule="evenodd" d="M118.491 31.7207H115.343C113.93 31.7207 113.673 32.4273 113.673 33.1768C113.673 34.3117 114.23 34.6757 115.301 34.6757C116.377 34.6393 117.446 34.4885 118.491 34.226V31.7207ZM118.491 30.3717V28.8727C118.491 27.2881 117.742 26.6029 115.986 26.6029C114.911 26.6059 113.845 26.8017 112.838 27.1811L112.539 25.5965C113.753 25.1276 115.048 24.9021 116.35 24.9327C118.855 24.9327 120.632 25.8963 120.632 28.5301V34.5901H122.045V35.8106C121.381 36.1488 120.649 36.3318 119.904 36.346C119.58 36.3866 119.253 36.3065 118.984 36.1208C118.715 35.9352 118.525 35.657 118.448 35.3395C117.428 36.0009 116.238 36.3507 115.022 36.346C114.588 36.4066 114.145 36.3703 113.726 36.2398C113.307 36.1093 112.922 35.8877 112.599 35.591C112.276 35.2943 112.022 34.9297 111.856 34.5235C111.69 34.1172 111.616 33.6793 111.639 33.241C111.639 30.9498 113.052 30.0719 115.451 30.0719C116.464 30.0719 117.476 30.1723 118.47 30.3717H118.491Z" fill="#232021"/>
<path fill-rule="evenodd" clip-rule="evenodd" d="M125.834 27.2453V36.1104H123.821V25.1468H125.834V25.9819H125.962C126.984 25.2852 128.194 24.919 129.431 24.9326C129.913 24.8752 130.402 24.9294 130.861 25.0912C131.319 25.253 131.734 25.5181 132.073 25.8658C132.412 26.2135 132.667 26.6347 132.818 27.0966C132.969 27.5586 133.011 28.0491 132.942 28.5301V36.1104H130.929V29.0868C130.929 27.6735 130.544 26.5815 128.788 26.5815C127.763 26.609 126.752 26.8344 125.812 27.2453H125.834Z" fill="#232021"/>
<path fill-rule="evenodd" clip-rule="evenodd" d="M137.696 29.4935H139.687L143.006 25.1466H145.382L141.443 30.1787L146.046 36.1102H143.541L139.73 31.1423H137.696V36.1102H135.683V20.7569L137.696 20.5427V29.4935Z" fill="#232021"/>
<path d="M84.088 52.5H85.768V51.444C86.36 52.212 87.24 52.692 88.248 52.692C90.216 52.692 91.672 51.188 91.672 48.644C91.672 46.148 90.232 44.58 88.248 44.58C87.272 44.58 86.376 45.028 85.768 45.844V41.828H84.088V52.5ZM85.768 50.18V47.124C86.136 46.548 86.968 46.068 87.752 46.068C89.096 46.068 89.944 47.14 89.944 48.644C89.944 50.148 89.096 51.204 87.752 51.204C86.968 51.204 86.136 50.756 85.768 50.18ZM98.6009 52.5H100.281V44.772H98.6009V50.196C98.2009 50.724 97.4649 51.204 96.6169 51.204C95.6729 51.204 95.0649 50.836 95.0649 49.636V44.772H93.3849V50.244C93.3849 51.828 94.2009 52.692 95.8649 52.692C97.0809 52.692 98.0409 52.1 98.6009 51.476V52.5ZM101.791 51.492C102.591 52.276 103.791 52.692 105.103 52.692C107.183 52.692 108.319 51.652 108.319 50.292C108.319 48.468 106.671 48.084 105.327 47.796C104.415 47.588 103.647 47.38 103.647 46.788C103.647 46.244 104.207 45.924 105.087 45.924C106.047 45.924 106.911 46.324 107.375 46.852L108.079 45.668C107.375 45.044 106.383 44.58 105.071 44.58C103.119 44.58 102.031 45.668 102.031 46.932C102.031 48.66 103.615 49.012 104.943 49.3C105.887 49.508 106.703 49.748 106.703 50.42C106.703 50.996 106.191 51.364 105.183 51.364C104.175 51.364 103.103 50.836 102.559 50.276L101.791 51.492ZM110.842 43.492C111.418 43.492 111.882 43.028 111.882 42.452C111.882 41.876 111.418 41.412 110.842 41.412C110.282 41.412 109.802 41.876 109.802 42.452C109.802 43.028 110.282 43.492 110.842 43.492ZM110.01 52.5H111.69V44.772H110.01V52.5ZM119.085 52.5H120.765V47.06C120.765 45.476 119.933 44.58 118.269 44.58C117.053 44.58 116.061 45.22 115.549 45.828V44.772H113.869V52.5H115.549V47.108C115.933 46.58 116.669 46.068 117.533 46.068C118.477 46.068 119.085 46.468 119.085 47.668V52.5ZM122.467 48.628C122.467 51.076 124.195 52.692 126.515 52.692C127.747 52.692 128.883 52.308 129.651 51.572L128.883 50.468C128.339 51.012 127.443 51.316 126.691 51.316C125.235 51.316 124.355 50.356 124.227 49.188H130.195V48.788C130.195 46.356 128.707 44.58 126.387 44.58C124.099 44.58 122.467 46.388 122.467 48.628ZM126.387 45.956C127.907 45.956 128.531 47.092 128.563 48.004H124.211C124.291 47.06 124.947 45.956 126.387 45.956ZM131.182 51.492C131.982 52.276 133.182 52.692 134.494 52.692C136.574 52.692 137.71 51.652 137.71 50.292C137.71 48.468 136.062 48.084 134.718 47.796C133.806 47.588 133.038 47.38 133.038 46.788C133.038 46.244 133.598 45.924 134.478 45.924C135.438 45.924 136.302 46.324 136.766 46.852L137.47 45.668C136.766 45.044 135.774 44.58 134.462 44.58C132.51 44.58 131.422 45.668 131.422 46.932C131.422 48.66 133.006 49.012 134.334 49.3C135.278 49.508 136.094 49.748 136.094 50.42C136.094 50.996 135.582 51.364 134.574 51.364C133.566 51.364 132.494 50.836 131.95 50.276L131.182 51.492ZM138.729 51.492C139.529 52.276 140.729 52.692 142.041 52.692C144.121 52.692 145.257 51.652 145.257 50.292C145.257 48.468 143.609 48.084 142.265 47.796C141.353 47.588 140.585 47.38 140.585 46.788C140.585 46.244 141.145 45.924 142.025 45.924C142.985 45.924 143.849 46.324 144.313 46.852L145.017 45.668C144.313 45.044 143.321 44.58 142.009 44.58C140.057 44.58 138.969 45.668 138.969 46.932C138.969 48.66 140.553 49.012 141.881 49.3C142.825 49.508 143.641 49.748 143.641 50.42C143.641 50.996 143.129 51.364 142.121 51.364C141.113 51.364 140.041 50.836 139.497 50.276L138.729 51.492Z" fill="#FAA61A"/>
</svg>
