<svg width="133" height="31" viewBox="0 0 133 31" fill="none" xmlns="http://www.w3.org/2000/svg">
<path d="M8.816 20.5H10.144V9.828H8.816V14.42H2.576V9.828H1.248V20.5H2.576V15.604H8.816V20.5ZM18.2226 20.5H19.4226V15.188C19.4226 13.316 18.0626 12.58 16.4306 12.58C15.1666 12.58 14.1746 12.996 13.3426 13.86L13.9026 14.692C14.5906 13.956 15.3426 13.62 16.2706 13.62C17.3906 13.62 18.2226 14.212 18.2226 15.252V16.644C17.5986 15.924 16.7186 15.588 15.6626 15.588C14.3506 15.588 12.9586 16.404 12.9586 18.132C12.9586 19.812 14.3506 20.692 15.6626 20.692C16.7026 20.692 17.5826 20.324 18.2226 19.62V20.5ZM18.2226 18.868C17.7586 19.508 16.9426 19.828 16.0946 19.828C14.9746 19.828 14.1906 19.124 14.1906 18.148C14.1906 17.156 14.9746 16.452 16.0946 16.452C16.9426 16.452 17.7586 16.772 18.2226 17.412V18.868ZM32.7851 20.5H33.9851V12.772H27.5531V20.5H28.7531V13.828H32.7851V20.5ZM40.5573 20.692C42.9093 20.692 44.3813 18.868 44.3813 16.628C44.3813 14.388 42.9093 12.58 40.5573 12.58C38.2053 12.58 36.7333 14.388 36.7333 16.628C36.7333 18.868 38.2053 20.692 40.5573 20.692ZM40.5573 19.62C38.9093 19.62 37.9813 18.212 37.9813 16.628C37.9813 15.06 38.9093 13.652 40.5573 13.652C42.2053 13.652 43.1173 15.06 43.1173 16.628C43.1173 18.212 42.2053 19.62 40.5573 19.62ZM46.0068 19.444V22.468H47.0628V20.5H53.1908V22.468H54.2468V19.444H53.3508V12.772H48.0388L47.8788 14.548C47.5748 17.7 47.0948 18.852 46.6948 19.444H46.0068ZM48.9348 14.852L49.0308 13.828H52.1508V19.444H47.8628C48.1988 18.98 48.6788 17.892 48.9348 14.852ZM61.9195 20.5H63.1195V12.772H56.6875V20.5H57.8875V13.828H61.9195V20.5ZM66.3156 20.5H67.4676L71.5476 14.484V20.5H72.7476V12.772H71.5636L67.5156 18.676V12.772H66.3156V20.5ZM75.4958 16.628C75.4958 18.932 77.0478 20.692 79.3518 20.692C80.7598 20.692 81.5918 20.116 82.1838 19.348L81.3838 18.612C80.8718 19.3 80.2158 19.62 79.4158 19.62C77.7678 19.62 76.7438 18.34 76.7438 16.628C76.7438 14.916 77.7678 13.652 79.4158 13.652C80.2158 13.652 80.8718 13.956 81.3838 14.66L82.1838 13.924C81.5918 13.156 80.7598 12.58 79.3518 12.58C77.0478 12.58 75.4958 14.34 75.4958 16.628ZM85.8656 12.772H84.6656V20.5H88.6496C90.3776 20.5 91.1936 19.252 91.1936 18.02C91.1936 16.788 90.3936 15.54 88.6496 15.54H85.8656V12.772ZM85.8656 16.596H88.5536C89.5456 16.596 89.9616 17.252 89.9616 18.02C89.9616 18.788 89.5296 19.444 88.5536 19.444H85.8656V16.596Z" fill="#231F20"/>
<path d="M103.5 15.5C103.5 7.49187 109.992 1 118 1C126.008 1 132.5 7.49187 132.5 15.5C132.5 23.5081 126.008 30 118 30C109.992 30 103.5 23.5081 103.5 15.5Z" stroke="#BFC5D2"/>
<path d="M115.074 18.408C115.722 19.176 116.67 19.644 118.05 19.644C119.838 19.644 121.098 18.6 121.098 16.932C121.098 15.3 119.886 14.352 118.542 14.352C117.774 14.352 117.114 14.664 116.73 15.048V12.732H120.57V11.496H115.326V15.972L116.322 16.26C116.826 15.78 117.39 15.564 118.074 15.564C119.058 15.564 119.682 16.128 119.682 16.992C119.682 17.772 119.046 18.396 118.038 18.396C117.138 18.396 116.418 18.06 115.878 17.448L115.074 18.408Z" fill="#F58220"/>
</svg>
