<svg width="217" height="31" viewBox="0 0 217 31" fill="none" xmlns="http://www.w3.org/2000/svg">
<path d="M0.816 15.172C0.816 18.324 2.944 20.692 6.112 20.692C9.264 20.692 11.408 18.324 11.408 15.172C11.408 12.02 9.264 9.652 6.112 9.652C2.944 9.652 0.816 12.02 0.816 15.172ZM10.032 15.172C10.032 17.652 8.496 19.508 6.112 19.508C3.712 19.508 2.192 17.652 2.192 15.172C2.192 12.676 3.712 10.836 6.112 10.836C8.496 10.836 10.032 12.676 10.032 15.172ZM15.6424 20.5H16.8424V13.828H19.0984V12.772H13.4024V13.828H15.6424V20.5ZM26.7039 20.5H27.9039V12.772H21.4719V20.5H22.6719V13.828H26.7039V20.5ZM32.3 23.444V19.332C32.924 20.196 33.852 20.692 34.908 20.692C36.94 20.692 38.348 19.124 38.348 16.628C38.348 14.116 36.94 12.58 34.908 12.58C33.82 12.58 32.86 13.14 32.3 13.924V12.772H31.1V23.444H32.3ZM37.084 16.628C37.084 18.34 36.156 19.62 34.604 19.62C33.66 19.62 32.716 19.044 32.3 18.372V14.884C32.716 14.212 33.66 13.652 34.604 13.652C36.156 13.652 37.084 14.916 37.084 16.628ZM45.9195 20.5H47.1195V15.188C47.1195 13.316 45.7595 12.58 44.1275 12.58C42.8635 12.58 41.8715 12.996 41.0395 13.86L41.5995 14.692C42.2875 13.956 43.0395 13.62 43.9675 13.62C45.0875 13.62 45.9195 14.212 45.9195 15.252V16.644C45.2955 15.924 44.4155 15.588 43.3595 15.588C42.0475 15.588 40.6555 16.404 40.6555 18.132C40.6555 19.812 42.0475 20.692 43.3595 20.692C44.3995 20.692 45.2795 20.324 45.9195 19.62V20.5ZM45.9195 18.868C45.4555 19.508 44.6395 19.828 43.7915 19.828C42.6715 19.828 41.8875 19.124 41.8875 18.148C41.8875 17.156 42.6715 16.452 43.7915 16.452C44.6395 16.452 45.4555 16.772 45.9195 17.412V18.868ZM50.325 20.5H54.309C56.037 20.5 56.917 19.652 56.917 18.404C56.917 17.524 56.293 16.708 55.477 16.516C56.165 16.308 56.757 15.684 56.757 14.756C56.757 13.588 55.893 12.772 54.277 12.772H50.325V20.5ZM55.525 14.932C55.525 15.54 55.093 16.004 54.277 16.004H51.525V13.828H54.277C55.077 13.828 55.525 14.26 55.525 14.932ZM55.669 18.26C55.669 18.996 55.157 19.444 54.309 19.444H51.525V17.06H54.309C55.205 17.06 55.669 17.636 55.669 18.26ZM58.8536 19.524V20.692C60.3416 20.692 61.3976 19.62 61.7976 14.66L61.8776 13.828H64.9976V20.5H66.1976V12.772H60.8376L60.6776 14.596C60.3256 18.564 59.6696 19.524 58.8536 19.524ZM68.9457 16.628C68.9457 19.044 70.5937 20.692 72.8817 20.692C74.1457 20.692 75.1857 20.276 75.9537 19.508L75.3777 18.724C74.7697 19.348 73.8737 19.7 72.9937 19.7C71.3297 19.7 70.3057 18.484 70.2097 17.028H76.4657V16.724C76.4657 14.404 75.0897 12.58 72.7537 12.58C70.5457 12.58 68.9457 14.388 68.9457 16.628ZM72.7377 13.572C74.4977 13.572 75.2657 14.996 75.2817 16.148H70.2097C70.2737 14.964 71.0897 13.572 72.7377 13.572ZM79.2094 20.5H80.4094V17.044H84.4414V20.5H85.6414V12.772H84.4414V15.988H80.4094V12.772H79.2094V20.5ZM88.8375 20.5H90.0375V17.044H94.0695V20.5H95.2695V12.772H94.0695V15.988H90.0375V12.772H88.8375V20.5ZM99.6656 12.772H98.4656V20.5H102.45C104.178 20.5 104.994 19.252 104.994 18.02C104.994 16.788 104.194 15.54 102.45 15.54H99.6656V12.772ZM106.258 20.5H107.458V12.772H106.258V20.5ZM99.6656 16.596H102.354C103.346 16.596 103.762 17.252 103.762 18.02C103.762 18.788 103.33 19.444 102.354 19.444H99.6656V16.596ZM110.208 16.628C110.208 19.044 111.856 20.692 114.144 20.692C115.408 20.692 116.448 20.276 117.216 19.508L116.64 18.724C116.032 19.348 115.136 19.7 114.256 19.7C112.592 19.7 111.568 18.484 111.472 17.028H117.728V16.724C117.728 14.404 116.352 12.58 114.016 12.58C111.808 12.58 110.208 14.388 110.208 16.628ZM114 13.572C115.76 13.572 116.528 14.996 116.544 16.148H111.472C111.536 14.964 112.352 13.572 114 13.572ZM125.397 20.5H129.381C131.109 20.5 131.989 19.652 131.989 18.404C131.989 17.524 131.365 16.708 130.549 16.516C131.237 16.308 131.829 15.684 131.829 14.756C131.829 13.588 130.965 12.772 129.349 12.772H125.397V20.5ZM130.597 14.932C130.597 15.54 130.165 16.004 129.349 16.004H126.597V13.828H129.349C130.149 13.828 130.597 14.26 130.597 14.932ZM130.741 18.26C130.741 18.996 130.229 19.444 129.381 19.444H126.597V17.06H129.381C130.277 17.06 130.741 17.636 130.741 18.26ZM139.315 16.02C139.315 18.836 140.771 20.692 143.139 20.692C145.523 20.692 146.947 18.836 146.947 16.612C146.947 14.516 145.523 12.772 143.331 12.772C141.955 12.772 140.883 13.508 140.291 14.516C140.579 12.836 141.555 11.524 144.227 11.06L146.211 10.724V9.652L144.195 9.972C140.643 10.548 139.315 12.516 139.315 16.02ZM145.699 16.612C145.699 18.212 144.787 19.62 143.139 19.62C141.491 19.62 140.562 18.212 140.562 16.612C140.562 15.06 141.491 13.652 143.139 13.652C144.787 13.652 145.699 15.06 145.699 16.612ZM154.582 20.5H155.782V15.188C155.782 13.316 154.422 12.58 152.79 12.58C151.526 12.58 150.534 12.996 149.702 13.86L150.262 14.692C150.95 13.956 151.702 13.62 152.63 13.62C153.75 13.62 154.582 14.212 154.582 15.252V16.644C153.958 15.924 153.078 15.588 152.022 15.588C150.71 15.588 149.318 16.404 149.318 18.132C149.318 19.812 150.71 20.692 152.022 20.692C153.062 20.692 153.942 20.324 154.582 19.62V20.5ZM154.582 18.868C154.118 19.508 153.302 19.828 152.454 19.828C151.334 19.828 150.55 19.124 150.55 18.148C150.55 17.156 151.334 16.452 152.454 16.452C153.302 16.452 154.118 16.772 154.582 17.412V18.868ZM158.988 20.5H160.188V17.044H164.22V20.5H165.42V12.772H164.22V15.988H160.188V12.772H158.988V20.5ZM173.88 20.5H175.416L171.976 16.276L175.4 12.772H173.88L169.816 16.884V12.772H168.616V20.5H169.816V18.292L171.096 17.028L173.88 20.5Z" fill="#231F20"/>
<path d="M187.5 15.5C187.5 7.49187 193.992 1 202 1C210.008 1 216.5 7.49187 216.5 15.5C216.5 23.5081 210.008 30 202 30C193.992 30 187.5 23.5081 187.5 15.5Z" stroke="#BFC5D2"/>
<path d="M195.6 19.5H201.396V18.264H197.844C199.992 16.644 201.348 15.324 201.348 13.848C201.348 12.252 199.992 11.376 198.444 11.376C197.328 11.376 196.2 11.808 195.492 12.66L196.308 13.584C196.812 13.008 197.532 12.624 198.468 12.624C199.2 12.624 199.92 13.008 199.92 13.848C199.92 15 198.708 16.044 195.6 18.396V19.5ZM202.809 18.408C203.457 19.176 204.405 19.644 205.785 19.644C207.573 19.644 208.833 18.6 208.833 16.932C208.833 15.3 207.621 14.352 206.277 14.352C205.509 14.352 204.849 14.664 204.465 15.048V12.732H208.305V11.496H203.061V15.972L204.057 16.26C204.561 15.78 205.125 15.564 205.809 15.564C206.793 15.564 207.417 16.128 207.417 16.992C207.417 17.772 206.781 18.396 205.773 18.396C204.873 18.396 204.153 18.06 203.613 17.448L202.809 18.408Z" fill="#F58220"/>
</svg>
