<svg width="329" height="173" viewBox="0 0 329 173" fill="none" xmlns="http://www.w3.org/2000/svg">
<path d="M58.1636 73.8432H62.7236C64.5536 73.8432 65.6186 72.7482 65.6186 71.1432C65.6186 69.9432 64.7336 68.8482 63.6686 68.6832C64.5836 68.4882 65.4236 67.6482 65.4236 66.3882C65.4236 64.8882 64.3586 63.8382 62.6186 63.8382H58.1636V73.8432ZM59.4086 68.1732V64.9482H62.4086C63.5336 64.9482 64.1336 65.6682 64.1336 66.5682C64.1336 67.4832 63.5336 68.1732 62.4086 68.1732H59.4086ZM59.4086 72.7332V69.2832H62.4686C63.6986 69.2832 64.3286 70.0932 64.3286 71.0082C64.3286 72.0732 63.6386 72.7332 62.4686 72.7332H59.4086ZM72.8322 73.8432H73.9572V68.8632C73.9572 67.1082 72.6822 66.4182 71.1522 66.4182C69.9672 66.4182 69.0372 66.8082 68.2572 67.6182L68.7822 68.3982C69.4272 67.7082 70.1322 67.3932 71.0022 67.3932C72.0522 67.3932 72.8322 67.9482 72.8322 68.9232V70.2282C72.2472 69.5532 71.4222 69.2382 70.4322 69.2382C69.2022 69.2382 67.8972 70.0032 67.8972 71.6232C67.8972 73.1982 69.2022 74.0232 70.4322 74.0232C71.4072 74.0232 72.2322 73.6782 72.8322 73.0182V73.8432ZM72.8322 72.3132C72.3972 72.9132 71.6322 73.2132 70.8372 73.2132C69.7872 73.2132 69.0522 72.5532 69.0522 71.6382C69.0522 70.7082 69.7872 70.0482 70.8372 70.0482C71.6322 70.0482 72.3972 70.3482 72.8322 70.9482V72.3132ZM76.9624 73.8432H78.0874V63.8382H76.9624V73.8432ZM85.6115 73.8432H86.7365V68.8632C86.7365 67.1082 85.4615 66.4182 83.9315 66.4182C82.7465 66.4182 81.8165 66.8082 81.0365 67.6182L81.5615 68.3982C82.2065 67.7082 82.9115 67.3932 83.7815 67.3932C84.8315 67.3932 85.6115 67.9482 85.6115 68.9232V70.2282C85.0265 69.5532 84.2015 69.2382 83.2115 69.2382C81.9815 69.2382 80.6765 70.0032 80.6765 71.6232C80.6765 73.1982 81.9815 74.0232 83.2115 74.0232C84.1865 74.0232 85.0115 73.6782 85.6115 73.0182V73.8432ZM85.6115 72.3132C85.1765 72.9132 84.4115 73.2132 83.6165 73.2132C82.5665 73.2132 81.8315 72.5532 81.8315 71.6382C81.8315 70.7082 82.5665 70.0482 83.6165 70.0482C84.4115 70.0482 85.1765 70.3482 85.6115 70.9482V72.3132ZM94.6317 73.8432H95.7567V68.7582C95.7567 67.1832 94.9617 66.4182 93.4467 66.4182C92.3667 66.4182 91.3767 67.0482 90.8667 67.6482V66.5982H89.7417V73.8432H90.8667V68.5482C91.2867 67.9632 92.1267 67.4232 93.0117 67.4232C93.9867 67.4232 94.6317 67.8282 94.6317 69.1032V73.8432ZM98.3334 70.2132C98.3334 72.3732 99.7884 74.0232 101.948 74.0232C103.268 74.0232 104.048 73.4832 104.603 72.7632L103.853 72.0732C103.373 72.7182 102.758 73.0182 102.008 73.0182C100.463 73.0182 99.5034 71.8182 99.5034 70.2132C99.5034 68.6082 100.463 67.4232 102.008 67.4232C102.758 67.4232 103.373 67.7082 103.853 68.3682L104.603 67.6782C104.048 66.9582 103.268 66.4182 101.948 66.4182C99.7884 66.4182 98.3334 68.0682 98.3334 70.2132ZM106.51 70.2132C106.51 72.4782 108.055 74.0232 110.2 74.0232C111.385 74.0232 112.36 73.6332 113.08 72.9132L112.54 72.1782C111.97 72.7632 111.13 73.0932 110.305 73.0932C108.745 73.0932 107.785 71.9532 107.695 70.5882H113.56V70.3032C113.56 68.1282 112.27 66.4182 110.08 66.4182C108.01 66.4182 106.51 68.1132 106.51 70.2132ZM110.065 67.3482C111.715 67.3482 112.435 68.6832 112.45 69.7632H107.695C107.755 68.6532 108.52 67.3482 110.065 67.3482Z" fill="#616173"/>
<path d="M31.9669 98.9793H33.6269V85.6393H32.1669L28.8269 89.0793L29.8269 90.0993L31.9669 87.8393V98.9793ZM43.6605 97.0793C44.6605 98.3993 46.1005 99.2193 48.3605 99.2193C51.0405 99.2193 53.1005 97.5393 53.1005 94.8193C53.1005 92.0793 51.0805 90.5593 48.8605 90.5593C47.5205 90.5593 46.3805 91.1193 45.7405 91.7593V87.1193H52.2405V85.6393H44.0805V92.8393L45.3005 93.2593C46.2005 92.3793 47.2005 91.9993 48.3805 91.9993C50.1805 91.9993 51.4405 93.1193 51.4405 94.8793C51.4405 96.4993 50.1805 97.7393 48.3605 97.7393C46.7205 97.7393 45.5605 97.0993 44.6805 95.9793L43.6605 97.0793ZM56.1574 92.3193C56.1574 95.5593 57.5974 99.2193 61.2574 99.2193C64.8974 99.2193 66.3574 95.5593 66.3574 92.3193C66.3574 89.0593 64.8974 85.4393 61.2574 85.4393C57.5974 85.4393 56.1574 89.0593 56.1574 92.3193ZM64.6574 92.3193C64.6574 94.9793 63.7974 97.7393 61.2574 97.7393C58.7174 97.7393 57.8574 94.9793 57.8574 92.3193C57.8574 89.6593 58.7174 86.9193 61.2574 86.9193C63.7974 86.9193 64.6574 89.6593 64.6574 92.3193ZM69.4035 92.3193C69.4035 95.5593 70.8435 99.2193 74.5035 99.2193C78.1435 99.2193 79.6035 95.5593 79.6035 92.3193C79.6035 89.0593 78.1435 85.4393 74.5035 85.4393C70.8435 85.4393 69.4035 89.0593 69.4035 92.3193ZM77.9035 92.3193C77.9035 94.9793 77.0435 97.7393 74.5035 97.7393C71.9635 97.7393 71.1035 94.9793 71.1035 92.3193C71.1035 89.6593 71.9635 86.9193 74.5035 86.9193C77.0435 86.9193 77.9035 89.6593 77.9035 92.3193ZM88.8058 92.3193C88.8058 95.5593 90.2458 99.2193 93.9058 99.2193C97.5458 99.2193 99.0058 95.5593 99.0058 92.3193C99.0058 89.0593 97.5458 85.4393 93.9058 85.4393C90.2458 85.4393 88.8058 89.0593 88.8058 92.3193ZM97.3058 92.3193C97.3058 94.9793 96.4458 97.7393 93.9058 97.7393C91.3658 97.7393 90.5058 94.9793 90.5058 92.3193C90.5058 89.6593 91.3658 86.9193 93.9058 86.9193C96.4458 86.9193 97.3058 89.6593 97.3058 92.3193ZM102.052 92.3193C102.052 95.5593 103.492 99.2193 107.152 99.2193C110.792 99.2193 112.252 95.5593 112.252 92.3193C112.252 89.0593 110.792 85.4393 107.152 85.4393C103.492 85.4393 102.052 89.0593 102.052 92.3193ZM110.552 92.3193C110.552 94.9793 109.692 97.7393 107.152 97.7393C104.612 97.7393 103.752 94.9793 103.752 92.3193C103.752 89.6593 104.612 86.9193 107.152 86.9193C109.692 86.9193 110.552 89.6593 110.552 92.3193ZM115.298 92.3193C115.298 95.5593 116.738 99.2193 120.398 99.2193C124.038 99.2193 125.498 95.5593 125.498 92.3193C125.498 89.0593 124.038 85.4393 120.398 85.4393C116.738 85.4393 115.298 89.0593 115.298 92.3193ZM123.798 92.3193C123.798 94.9793 122.938 97.7393 120.398 97.7393C117.858 97.7393 116.998 94.9793 116.998 92.3193C116.998 89.6593 117.858 86.9193 120.398 86.9193C122.938 86.9193 123.798 89.6593 123.798 92.3193ZM137.769 90.6353L137.755 89.6273L136.943 89.9773L136.915 90.6913C133.233 91.2233 131.819 95.2133 131.609 98.8673L132.757 98.9093C132.771 93.7433 135.333 91.7833 136.887 91.4473L136.691 98.3493L137.853 97.6913L137.769 91.4753C141.297 92.0073 141.731 96.7533 141.857 98.9093L143.005 98.9653C142.921 93.7433 140.163 90.7893 137.769 90.6353Z" fill="black"/>
<mask id="path-3-outside-1" maskUnits="userSpaceOnUse" x="40" y="0.499994" width="132" height="172" fill="black">
<rect fill="white" x="40" y="0.499994" width="132" height="172"/>
<path d="M45 157.514C55.8927 163.803 68.0861 167.502 80.6369 168.324C93.1878 169.147 105.76 167.071 117.38 162.258C129 157.445 139.358 150.023 147.651 140.566C155.944 131.11 161.951 119.872 165.206 107.723C168.461 95.574 168.878 82.8387 166.424 70.5026C163.971 58.1665 158.712 46.5602 151.055 36.5816C143.398 26.6029 133.548 18.5195 122.268 12.9564C110.987 7.39342 98.5778 4.5 86 4.5L86 7.04182C98.1879 7.04182 110.212 9.84556 121.143 15.2361C132.074 20.6267 141.619 28.4596 149.038 38.1289C156.458 47.7982 161.554 59.0448 163.931 70.9985C166.309 82.9522 165.905 95.2927 162.751 107.065C159.596 118.838 153.776 129.727 145.74 138.89C137.704 148.054 127.667 155.246 116.407 159.91C105.147 164.574 92.965 166.585 80.8032 165.788C68.6414 164.991 56.8259 161.407 46.2709 155.313L45 157.514Z"/>
</mask>
<path d="M45 157.514C55.8927 163.803 68.0861 167.502 80.6369 168.324C93.1878 169.147 105.76 167.071 117.38 162.258C129 157.445 139.358 150.023 147.651 140.566C155.944 131.11 161.951 119.872 165.206 107.723C168.461 95.574 168.878 82.8387 166.424 70.5026C163.971 58.1665 158.712 46.5602 151.055 36.5816C143.398 26.6029 133.548 18.5195 122.268 12.9564C110.987 7.39342 98.5778 4.5 86 4.5L86 7.04182C98.1879 7.04182 110.212 9.84556 121.143 15.2361C132.074 20.6267 141.619 28.4596 149.038 38.1289C156.458 47.7982 161.554 59.0448 163.931 70.9985C166.309 82.9522 165.905 95.2927 162.751 107.065C159.596 118.838 153.776 129.727 145.74 138.89C137.704 148.054 127.667 155.246 116.407 159.91C105.147 164.574 92.965 166.585 80.8032 165.788C68.6414 164.991 56.8259 161.407 46.2709 155.313L45 157.514Z" fill="url(#paint0_linear)"/>
<path d="M45 157.514C55.8927 163.803 68.0861 167.502 80.6369 168.324C93.1878 169.147 105.76 167.071 117.38 162.258C129 157.445 139.358 150.023 147.651 140.566C155.944 131.11 161.951 119.872 165.206 107.723C168.461 95.574 168.878 82.8387 166.424 70.5026C163.971 58.1665 158.712 46.5602 151.055 36.5816C143.398 26.6029 133.548 18.5195 122.268 12.9564C110.987 7.39342 98.5778 4.5 86 4.5L86 7.04182C98.1879 7.04182 110.212 9.84556 121.143 15.2361C132.074 20.6267 141.619 28.4596 149.038 38.1289C156.458 47.7982 161.554 59.0448 163.931 70.9985C166.309 82.9522 165.905 95.2927 162.751 107.065C159.596 118.838 153.776 129.727 145.74 138.89C137.704 148.054 127.667 155.246 116.407 159.91C105.147 164.574 92.965 166.585 80.8032 165.788C68.6414 164.991 56.8259 161.407 46.2709 155.313L45 157.514Z" stroke="white" stroke-width="8" stroke-linecap="round" stroke-linejoin="round" mask="url(#path-3-outside-1)"/>
<mask id="path-4-outside-2" maskUnits="userSpaceOnUse" x="-6.95011e-06" y="0.499993" width="90" height="163" fill="black">
<rect fill="white" x="-6.95011e-06" y="0.499993" width="90" height="163"/>
<path d="M86 4.5C67.949 4.49999 50.4024 10.4563 36.0816 21.445C21.7607 32.4338 11.466 47.8409 6.79408 65.2768C2.12213 82.7128 3.33406 101.203 10.2419 117.88C17.1497 134.557 29.3673 148.489 45 157.514L46.2545 155.341C31.1003 146.592 19.2564 133.086 12.56 116.92C5.86354 100.753 4.6887 82.8286 9.21769 65.9262C13.7467 49.0238 23.7264 34.0881 37.609 23.4356C51.4916 12.7831 68.5013 7.0091 86 7.00911L86 4.5Z"/>
</mask>
<path d="M86 4.5C67.949 4.49999 50.4024 10.4563 36.0816 21.445C21.7607 32.4338 11.466 47.8409 6.79408 65.2768C2.12213 82.7128 3.33406 101.203 10.2419 117.88C17.1497 134.557 29.3673 148.489 45 157.514L46.2545 155.341C31.1003 146.592 19.2564 133.086 12.56 116.92C5.86354 100.753 4.6887 82.8286 9.21769 65.9262C13.7467 49.0238 23.7264 34.0881 37.609 23.4356C51.4916 12.7831 68.5013 7.0091 86 7.00911L86 4.5Z" fill="#5F6369"/>
<path d="M86 4.5C67.949 4.49999 50.4024 10.4563 36.0816 21.445C21.7607 32.4338 11.466 47.8409 6.79408 65.2768C2.12213 82.7128 3.33406 101.203 10.2419 117.88C17.1497 134.557 29.3673 148.489 45 157.514L46.2545 155.341C31.1003 146.592 19.2564 133.086 12.56 116.92C5.86354 100.753 4.6887 82.8286 9.21769 65.9262C13.7467 49.0238 23.7264 34.0881 37.609 23.4356C51.4916 12.7831 68.5013 7.0091 86 7.00911L86 4.5Z" stroke="white" stroke-width="8" mask="url(#path-4-outside-2)"/>
<path d="M212.765 106.505C212.765 109.46 214.76 111.68 217.73 111.68C220.685 111.68 222.695 109.46 222.695 106.505C222.695 103.55 220.685 101.33 217.73 101.33C214.76 101.33 212.765 103.55 212.765 106.505ZM221.405 106.505C221.405 108.83 219.965 110.57 217.73 110.57C215.48 110.57 214.055 108.83 214.055 106.505C214.055 104.165 215.48 102.44 217.73 102.44C219.965 102.44 221.405 104.165 221.405 106.505ZM230.235 111.5H231.36V104.255H230.235V109.58C229.815 110.165 228.975 110.675 228.09 110.675C227.115 110.675 226.47 110.3 226.47 109.025V104.255H225.345V109.37C225.345 110.945 226.14 111.68 227.655 111.68C228.735 111.68 229.68 111.11 230.235 110.48V111.5ZM236.186 111.68C236.846 111.68 237.251 111.485 237.536 111.215L237.206 110.375C237.056 110.54 236.756 110.675 236.441 110.675C235.946 110.675 235.706 110.285 235.706 109.745V105.245H237.176V104.255H235.706V102.275H234.581V104.255H233.381V105.245H234.581V109.985C234.581 111.065 235.121 111.68 236.186 111.68ZM239.096 107.87C239.096 110.03 240.551 111.68 242.711 111.68C244.031 111.68 244.811 111.14 245.366 110.42L244.616 109.73C244.136 110.375 243.521 110.675 242.771 110.675C241.226 110.675 240.266 109.475 240.266 107.87C240.266 106.265 241.226 105.08 242.771 105.08C243.521 105.08 244.136 105.365 244.616 106.025L245.366 105.335C244.811 104.615 244.031 104.075 242.711 104.075C240.551 104.075 239.096 105.725 239.096 107.87ZM250.857 111.68C253.062 111.68 254.442 109.97 254.442 107.87C254.442 105.77 253.062 104.075 250.857 104.075C248.652 104.075 247.272 105.77 247.272 107.87C247.272 109.97 248.652 111.68 250.857 111.68ZM250.857 110.675C249.312 110.675 248.442 109.355 248.442 107.87C248.442 106.4 249.312 105.08 250.857 105.08C252.402 105.08 253.257 106.4 253.257 107.87C253.257 109.355 252.402 110.675 250.857 110.675ZM265.771 111.5H266.896V106.265C266.896 104.81 266.191 104.075 264.871 104.075C263.821 104.075 262.846 104.765 262.441 105.425C262.231 104.675 261.601 104.075 260.491 104.075C259.426 104.075 258.451 104.84 258.151 105.305V104.255H257.026V111.5H258.151V106.205C258.541 105.62 259.321 105.08 260.056 105.08C261.001 105.08 261.391 105.665 261.391 106.58V111.5H262.516V106.19C262.891 105.62 263.686 105.08 264.436 105.08C265.366 105.08 265.771 105.665 265.771 106.58V111.5ZM270.446 103.04C270.866 103.04 271.211 102.695 271.211 102.275C271.211 101.855 270.866 101.525 270.446 101.525C270.041 101.525 269.696 101.855 269.696 102.275C269.696 102.695 270.041 103.04 270.446 103.04ZM269.891 111.5H271.016V104.255H269.891V111.5ZM278.9 111.5H280.025V106.415C280.025 104.84 279.23 104.075 277.715 104.075C276.635 104.075 275.645 104.705 275.135 105.305V104.255H274.01V111.5H275.135V106.205C275.555 105.62 276.395 105.08 277.28 105.08C278.255 105.08 278.9 105.485 278.9 106.76V111.5ZM283.006 113.36C283.861 114.2 284.701 114.44 285.931 114.44C287.701 114.44 289.381 113.69 289.381 111.29V104.255H288.256V105.35C287.671 104.555 286.801 104.075 285.826 104.075C283.921 104.075 282.601 105.515 282.601 107.84C282.601 110.18 283.936 111.59 285.826 111.59C286.846 111.59 287.731 111.035 288.256 110.3V111.335C288.256 112.925 287.131 113.51 285.931 113.51C284.896 113.51 284.176 113.24 283.576 112.52L283.006 113.36ZM288.256 109.415C287.866 110.045 286.996 110.6 286.096 110.6C284.641 110.6 283.771 109.43 283.771 107.84C283.771 106.235 284.641 105.08 286.096 105.08C286.996 105.08 287.866 105.62 288.256 106.25V109.415Z" fill="#616173"/>
<path d="M213.32 132.6C214.32 133.92 215.76 134.74 218.02 134.74C220.7 134.74 222.76 133.06 222.76 130.34C222.76 127.6 220.74 126.08 218.52 126.08C217.18 126.08 216.04 126.64 215.4 127.28V122.64H221.9V121.16H213.74V128.36L214.96 128.78C215.86 127.9 216.86 127.52 218.04 127.52C219.84 127.52 221.1 128.64 221.1 130.4C221.1 132.02 219.84 133.26 218.02 133.26C216.38 133.26 215.22 132.62 214.34 131.5L213.32 132.6ZM225.817 127.84C225.817 131.08 227.257 134.74 230.917 134.74C234.557 134.74 236.017 131.08 236.017 127.84C236.017 124.58 234.557 120.96 230.917 120.96C227.257 120.96 225.817 124.58 225.817 127.84ZM234.317 127.84C234.317 130.5 233.457 133.26 230.917 133.26C228.377 133.26 227.517 130.5 227.517 127.84C227.517 125.18 228.377 122.44 230.917 122.44C233.457 122.44 234.317 125.18 234.317 127.84ZM239.063 127.84C239.063 131.08 240.503 134.74 244.163 134.74C247.803 134.74 249.263 131.08 249.263 127.84C249.263 124.58 247.803 120.96 244.163 120.96C240.503 120.96 239.063 124.58 239.063 127.84ZM247.563 127.84C247.563 130.5 246.703 133.26 244.163 133.26C241.623 133.26 240.763 130.5 240.763 127.84C240.763 125.18 241.623 122.44 244.163 122.44C246.703 122.44 247.563 125.18 247.563 127.84ZM256.465 127.84C256.465 131.08 257.905 134.74 261.565 134.74C265.205 134.74 266.665 131.08 266.665 127.84C266.665 124.58 265.205 120.96 261.565 120.96C257.905 120.96 256.465 124.58 256.465 127.84ZM264.965 127.84C264.965 130.5 264.105 133.26 261.565 133.26C259.025 133.26 258.165 130.5 258.165 127.84C258.165 125.18 259.025 122.44 261.565 122.44C264.105 122.44 264.965 125.18 264.965 127.84ZM269.711 127.84C269.711 131.08 271.151 134.74 274.811 134.74C278.451 134.74 279.911 131.08 279.911 127.84C279.911 124.58 278.451 120.96 274.811 120.96C271.151 120.96 269.711 124.58 269.711 127.84ZM278.211 127.84C278.211 130.5 277.351 133.26 274.811 133.26C272.271 133.26 271.411 130.5 271.411 127.84C271.411 125.18 272.271 122.44 274.811 122.44C277.351 122.44 278.211 125.18 278.211 127.84ZM282.958 127.84C282.958 131.08 284.398 134.74 288.058 134.74C291.698 134.74 293.158 131.08 293.158 127.84C293.158 124.58 291.698 120.96 288.058 120.96C284.398 120.96 282.958 124.58 282.958 127.84ZM291.458 127.84C291.458 130.5 290.598 133.26 288.058 133.26C285.518 133.26 284.658 130.5 284.658 127.84C284.658 125.18 285.518 122.44 288.058 122.44C290.598 122.44 291.458 125.18 291.458 127.84ZM305.429 126.156L305.415 125.148L304.603 125.498L304.575 126.212C300.893 126.744 299.479 130.734 299.269 134.388L300.417 134.43C300.431 129.264 302.993 127.304 304.547 126.968L304.351 133.87L305.513 133.212L305.429 126.996C308.957 127.528 309.391 132.274 309.517 134.43L310.665 134.486C310.581 129.264 307.823 126.31 305.429 126.156Z" fill="black"/>
<path d="M199 98.5C199 97.9477 199.448 97.5 200 97.5C200.552 97.5 201 97.9477 201 98.5V136.5C201 137.052 200.552 137.5 200 137.5C199.448 137.5 199 137.052 199 136.5V98.5Z" fill="#5F6369"/>
<path d="M213.17 35.5H214.415V25.495H213.17V35.5ZM222.354 35.5H223.479V30.415C223.479 28.84 222.684 28.075 221.169 28.075C220.089 28.075 219.099 28.705 218.589 29.305V28.255H217.464V35.5H218.589V30.205C219.009 29.62 219.849 29.08 220.734 29.08C221.709 29.08 222.354 29.485 222.354 30.76V35.5ZM226.056 31.87C226.056 34.03 227.511 35.68 229.671 35.68C230.991 35.68 231.771 35.14 232.326 34.42L231.576 33.73C231.096 34.375 230.481 34.675 229.731 34.675C228.186 34.675 227.226 33.475 227.226 31.87C227.226 30.265 228.186 29.08 229.731 29.08C230.481 29.08 231.096 29.365 231.576 30.025L232.326 29.335C231.771 28.615 230.991 28.075 229.671 28.075C227.511 28.075 226.056 29.725 226.056 31.87ZM237.817 35.68C240.022 35.68 241.402 33.97 241.402 31.87C241.402 29.77 240.022 28.075 237.817 28.075C235.612 28.075 234.232 29.77 234.232 31.87C234.232 33.97 235.612 35.68 237.817 35.68ZM237.817 34.675C236.272 34.675 235.402 33.355 235.402 31.87C235.402 30.4 236.272 29.08 237.817 29.08C239.362 29.08 240.217 30.4 240.217 31.87C240.217 33.355 239.362 34.675 237.817 34.675ZM252.731 35.5H253.856V30.265C253.856 28.81 253.151 28.075 251.831 28.075C250.781 28.075 249.806 28.765 249.401 29.425C249.191 28.675 248.561 28.075 247.451 28.075C246.386 28.075 245.411 28.84 245.111 29.305V28.255H243.986V35.5H245.111V30.205C245.501 29.62 246.281 29.08 247.016 29.08C247.961 29.08 248.351 29.665 248.351 30.58V35.5H249.476V30.19C249.851 29.62 250.646 29.08 251.396 29.08C252.326 29.08 252.731 29.665 252.731 30.58V35.5ZM257.406 27.04C257.826 27.04 258.171 26.695 258.171 26.275C258.171 25.855 257.826 25.525 257.406 25.525C257.001 25.525 256.656 25.855 256.656 26.275C256.656 26.695 257.001 27.04 257.406 27.04ZM256.851 35.5H257.976V28.255H256.851V35.5ZM265.86 35.5H266.985V30.415C266.985 28.84 266.19 28.075 264.675 28.075C263.595 28.075 262.605 28.705 262.095 29.305V28.255H260.97V35.5H262.095V30.205C262.515 29.62 263.355 29.08 264.24 29.08C265.215 29.08 265.86 29.485 265.86 30.76V35.5ZM269.966 37.36C270.821 38.2 271.661 38.44 272.891 38.44C274.661 38.44 276.341 37.69 276.341 35.29V28.255H275.216V29.35C274.631 28.555 273.761 28.075 272.786 28.075C270.881 28.075 269.561 29.515 269.561 31.84C269.561 34.18 270.896 35.59 272.786 35.59C273.806 35.59 274.691 35.035 275.216 34.3V35.335C275.216 36.925 274.091 37.51 272.891 37.51C271.856 37.51 271.136 37.24 270.536 36.52L269.966 37.36ZM275.216 33.415C274.826 34.045 273.956 34.6 273.056 34.6C271.601 34.6 270.731 33.43 270.731 31.84C270.731 30.235 271.601 29.08 273.056 29.08C273.956 29.08 274.826 29.62 275.216 30.25V33.415Z" fill="#616173"/>
<path d="M213.08 58.5H222.24V57.02H215.7C219.42 54.08 222.18 51.6 222.18 48.88C222.18 46.22 219.92 44.96 217.7 44.96C215.82 44.96 214.08 45.72 213.06 47.06L214.08 48.12C214.86 47.12 216.1 46.44 217.7 46.44C219.08 46.44 220.48 47.18 220.48 48.88C220.48 51.18 217.88 53.4 213.08 57.18V58.5ZM229.934 51.84C229.934 55.08 231.374 58.74 235.034 58.74C238.674 58.74 240.134 55.08 240.134 51.84C240.134 48.58 238.674 44.96 235.034 44.96C231.374 44.96 229.934 48.58 229.934 51.84ZM238.434 51.84C238.434 54.5 237.574 57.26 235.034 57.26C232.494 57.26 231.634 54.5 231.634 51.84C231.634 49.18 232.494 46.44 235.034 46.44C237.574 46.44 238.434 49.18 238.434 51.84ZM243.18 51.84C243.18 55.08 244.62 58.74 248.28 58.74C251.92 58.74 253.38 55.08 253.38 51.84C253.38 48.58 251.92 44.96 248.28 44.96C244.62 44.96 243.18 48.58 243.18 51.84ZM251.68 51.84C251.68 54.5 250.82 57.26 248.28 57.26C245.74 57.26 244.88 54.5 244.88 51.84C244.88 49.18 245.74 46.44 248.28 46.44C250.82 46.44 251.68 49.18 251.68 51.84ZM256.426 51.84C256.426 55.08 257.866 58.74 261.526 58.74C265.166 58.74 266.626 55.08 266.626 51.84C266.626 48.58 265.166 44.96 261.526 44.96C257.866 44.96 256.426 48.58 256.426 51.84ZM264.926 51.84C264.926 54.5 264.066 57.26 261.526 57.26C258.986 57.26 258.126 54.5 258.126 51.84C258.126 49.18 258.986 46.44 261.526 46.44C264.066 46.44 264.926 49.18 264.926 51.84ZM273.829 51.84C273.829 55.08 275.269 58.74 278.929 58.74C282.569 58.74 284.029 55.08 284.029 51.84C284.029 48.58 282.569 44.96 278.929 44.96C275.269 44.96 273.829 48.58 273.829 51.84ZM282.329 51.84C282.329 54.5 281.469 57.26 278.929 57.26C276.389 57.26 275.529 54.5 275.529 51.84C275.529 49.18 276.389 46.44 278.929 46.44C281.469 46.44 282.329 49.18 282.329 51.84ZM287.075 51.84C287.075 55.08 288.515 58.74 292.175 58.74C295.815 58.74 297.275 55.08 297.275 51.84C297.275 48.58 295.815 44.96 292.175 44.96C288.515 44.96 287.075 48.58 287.075 51.84ZM295.575 51.84C295.575 54.5 294.715 57.26 292.175 57.26C289.635 57.26 288.775 54.5 288.775 51.84C288.775 49.18 289.635 46.44 292.175 46.44C294.715 46.44 295.575 49.18 295.575 51.84ZM300.321 51.84C300.321 55.08 301.761 58.74 305.421 58.74C309.061 58.74 310.521 55.08 310.521 51.84C310.521 48.58 309.061 44.96 305.421 44.96C301.761 44.96 300.321 48.58 300.321 51.84ZM308.821 51.84C308.821 54.5 307.961 57.26 305.421 57.26C302.881 57.26 302.021 54.5 302.021 51.84C302.021 49.18 302.881 46.44 305.421 46.44C307.961 46.44 308.821 49.18 308.821 51.84ZM322.792 50.156L322.778 49.148L321.966 49.498L321.938 50.212C318.256 50.744 316.842 54.734 316.632 58.388L317.78 58.43C317.794 53.264 320.356 51.304 321.91 50.968L321.714 57.87L322.876 57.212L322.792 50.996C326.32 51.528 326.754 56.274 326.88 58.43L328.028 58.486C327.944 53.264 325.186 50.31 322.792 50.156Z" fill="black"/>
<path d="M199 22.5C199 21.9477 199.448 21.5 200 21.5C200.552 21.5 201 21.9477 201 22.5V60.5C201 61.0523 200.552 61.5 200 61.5C199.448 61.5 199 61.0523 199 60.5V22.5Z" fill="#FFAA00"/>
<defs>
<linearGradient id="paint0_linear" x1="80.875" y1="168.5" x2="80.875" y2="4.5" gradientUnits="userSpaceOnUse">
<stop offset="0.690608" stop-color="#FAA61A"/>
<stop offset="1" stop-color="#F58220"/>
</linearGradient>
</defs>
</svg>
