<svg width="26" height="28" viewBox="0 0 26 28" fill="none" xmlns="http://www.w3.org/2000/svg">
<path d="M5.59047 5.42198C9.62718 1.77052 15.6683 1.71469 19.7608 5.0479L16.5169 5.17073C16.0982 5.18748 15.7744 5.53365 15.7911 5.95239C15.8079 6.35997 16.1429 6.67822 16.5449 6.67822C16.556 6.67822 16.5616 6.67822 16.5728 6.67822L21.5531 6.49397C21.9606 6.47722 22.2789 6.14781 22.2789 5.74023V5.6844C22.2789 5.67323 22.2789 5.66765 22.2789 5.65648V5.6509L22.0946 0.726447C22.0779 0.307702 21.7261 -0.0161283 21.313 0.000621524C20.8942 0.0173714 20.5704 0.363534 20.5871 0.78228L20.7044 3.86983C18.6777 2.2116 16.1819 1.25128 13.5131 1.11728C10.2078 0.949778 7.03095 2.08318 4.5799 4.30533C1.2076 7.35938 -0.22172 12.0047 0.850269 16.4266C0.934018 16.7728 1.2411 17.0017 1.58168 17.0017C1.64309 17.0017 1.69893 16.9961 1.76034 16.9794C2.16234 16.8789 2.41359 16.4713 2.31309 16.0693C1.3751 12.1833 2.62575 8.10195 5.59047 5.42198Z" fill="#F58220"/>
<path d="M25.1499 10.9158C25.0494 10.5138 24.6419 10.2625 24.2399 10.363C23.8379 10.4635 23.5866 10.8711 23.6871 11.2731C24.6307 15.1591 23.3745 19.2405 20.4097 21.9204C18.3272 23.802 15.7142 24.7288 13.1124 24.7288C10.6278 24.7288 8.14886 23.8857 6.15005 22.2219L9.43301 21.926C9.84618 21.8869 10.1533 21.524 10.1142 21.1053C10.0751 20.6865 9.71218 20.385 9.29343 20.4241L4.3299 20.8708C3.91674 20.9099 3.60966 21.2728 3.64874 21.6915L4.0954 26.655C4.1289 27.0459 4.45831 27.3418 4.84356 27.3418C4.86589 27.3418 4.88823 27.3418 4.91056 27.3362C5.32372 27.2971 5.6308 26.9342 5.59172 26.5155L5.32372 23.4949C7.35045 25.1364 9.83501 26.0911 12.4871 26.2251C12.6992 26.2363 12.9114 26.2419 13.118 26.2419C16.1944 26.2419 19.12 25.1141 21.4203 23.0371C24.7926 19.983 26.2219 15.3433 25.1499 10.9158Z" fill="#616173"/>
<path d="M17.8575 16.3409C17.8358 14.6359 17.4122 12.8115 16.424 11.3997C15.6855 10.3572 14.7299 9.69476 13.7417 9.54272L13.7308 8.53278L12.4711 9.07576L12.4494 9.58616C9.46296 10.1834 8.42043 13.5934 8.2684 16.254L8.25754 16.5689L9.81047 16.6449L9.82133 16.3083C9.82133 14.4513 10.2883 12.2902 11.8955 11.1608C12.0801 11.0414 12.2648 10.9653 12.4059 10.8893L12.243 16.4278L13.8177 15.5264L13.7634 10.8567C15.8484 11.5083 16.2068 14.4839 16.3263 16.33L16.348 16.6232L17.8683 16.6775L17.8575 16.3409Z" fill="#616173"/>
</svg>
