<svg width="21" height="20" viewBox="0 0 21 20" fill="none" xmlns="http://www.w3.org/2000/svg">
<g clip-path="url(#clip0)">
<path d="M18.2778 2.77783H2.72223C1.495 2.77783 0.5 3.77229 0.5 5.00006V15.0001C0.5 16.2278 1.495 17.2223 2.72223 17.2223H18.2778C19.505 17.2223 20.5 16.2278 20.5 15.0001V5.00006C20.5 3.77229 19.505 2.77783 18.2778 2.77783Z" fill="#003399"/>
<path d="M10.7993 14.9515L11.2709 14.6088H10.6882L10.5076 14.0543L10.3276 14.6088H9.74484L10.2165 14.9515L10.036 15.506L10.5077 15.1632L10.9793 15.506L10.7993 14.9515Z" fill="#FFCC00"/>
<path d="M10.7993 5.32197L11.2709 4.9792H10.6882L10.5076 4.42474L10.3276 4.9792H9.74484L10.2165 5.32197L10.036 5.87642L10.5077 5.53365L10.9793 5.87642L10.7993 5.32197Z" fill="#FFCC00"/>
<path d="M5.9848 10.1366L6.45648 9.79383H5.87371L5.69316 9.23938L5.51316 9.79383H4.93039L5.40207 10.1366L5.22152 10.6911L5.6932 10.3483L6.16488 10.6911L5.9848 10.1366Z" fill="#FFCC00"/>
<path d="M6.60083 12.5173L7.07251 12.1745H6.48974L6.30919 11.6201L6.12919 12.1745H5.54642L6.0181 12.5173L5.83755 13.0717L6.30923 12.729L6.78091 13.0717L6.60083 12.5173Z" fill="#FFCC00"/>
<path d="M6.60083 7.72926L7.07251 7.38648H6.48974L6.30919 6.83203L6.12919 7.38648H5.54642L6.0181 7.72926L5.83755 8.28371L6.30923 7.94094L6.78091 8.28371L6.60083 7.72926Z" fill="#FFCC00"/>
<path d="M8.39243 14.3066L8.86411 13.9638H8.28133L8.10079 13.4094L7.92079 13.9638H7.33801L7.80969 14.3066L7.62915 14.861L8.10083 14.5183L8.5725 14.861L8.39243 14.3066Z" fill="#FFCC00"/>
<path d="M8.39243 5.93543L8.86411 5.59266H8.28133L8.10079 5.03821L7.92079 5.59266H7.33801L7.80969 5.93543L7.62915 6.48989L8.10083 6.14711L8.5725 6.48989L8.39243 5.93543Z" fill="#FFCC00"/>
<path d="M15.0161 10.1366L14.5444 9.79383H15.1272L15.3077 9.23938L15.4877 9.79383H16.0705L15.5988 10.1366L15.7793 10.6911L15.3077 10.3483L14.836 10.6911L15.0161 10.1366Z" fill="#FFCC00"/>
<path d="M14.3998 12.5173L13.9281 12.1745H14.5109L14.6915 11.6201L14.8715 12.1745H15.4542L14.9826 12.5173L15.1631 13.0717L14.6914 12.729L14.2197 13.0717L14.3998 12.5173Z" fill="#FFCC00"/>
<path d="M14.3998 7.72926L13.9281 7.38648H14.5109L14.6915 6.83203L14.8715 7.38648H15.4542L14.9826 7.72926L15.1631 8.28371L14.6914 7.94094L14.2197 8.28371L14.3998 7.72926Z" fill="#FFCC00"/>
<path d="M12.6082 14.3066L12.1366 13.9638H12.7193L12.8999 13.4094L13.0799 13.9638H13.6626L13.191 14.3066L13.3715 14.861L12.8998 14.5183L12.4282 14.861L12.6082 14.3066Z" fill="#FFCC00"/>
<path d="M12.6082 5.93543L12.1366 5.59266H12.7193L12.8999 5.03821L13.0799 5.59266H13.6626L13.191 5.93543L13.3715 6.48989L12.8998 6.14711L12.4282 6.48989L12.6082 5.93543Z" fill="#FFCC00"/>
</g>
<defs>
<clipPath id="clip0">
<rect width="20" height="20" transform="matrix(1 0 0 -1 0.5 20)" fill="white"/>
</clipPath>
</defs>
</svg>
