<svg width="21" height="20" viewBox="0 0 21 20" fill="none" xmlns="http://www.w3.org/2000/svg">
<g clip-path="url(#clip0)">
<path d="M0.5 7.22223H3.62666L0.5 5.03336V7.22223Z" fill="#00247D"/>
<path d="M3.09129 17.2222H7.7224V13.9795L3.09129 17.2222Z" fill="#00247D"/>
<path d="M13.2774 13.98V17.2222H17.908L13.2774 13.98Z" fill="#00247D"/>
<path d="M0.5 12.7778V14.9672L3.62778 12.7778H0.5Z" fill="#00247D"/>
<path d="M17.9106 2.77779H13.2789V6.02057L17.9106 2.77779Z" fill="#00247D"/>
<path d="M17.372 12.7778L20.5004 14.9678V12.7778H17.372Z" fill="#00247D"/>
<path d="M17.3733 7.22223H20.5005V5.03277L17.3733 7.22223Z" fill="#00247D"/>
<path d="M7.7224 2.77779H3.09129L7.7224 6.02057V2.77779Z" fill="#00247D"/>
<path d="M14.4664 12.7778L19.862 16.5562C20.1236 16.2895 20.3108 15.955 20.412 15.5845L16.4036 12.7778H14.4664V12.7778Z" fill="#CF1B2B"/>
<path d="M7.72261 12.7778H6.53316L1.13814 16.5555C1.42759 16.85 1.79868 17.0605 2.2148 17.1583L7.72256 13.3016V12.7778H7.72261Z" fill="#CF1B2B"/>
<path d="M13.2781 7.22223H14.4676L19.8626 3.44444C19.5732 3.15001 19.2021 2.93946 18.7865 2.84166L13.2781 6.69835V7.22223Z" fill="#CF1B2B"/>
<path d="M6.53253 7.22223L1.13756 3.44445C0.875888 3.7111 0.688681 4.04557 0.587021 4.41613L4.59537 7.22223H6.53253Z" fill="#CF1B2B"/>
<path d="M20.5004 11.6667H12.1671V17.2222H13.2782V13.98L17.9088 17.2222H18.2782C18.8988 17.2222 19.4593 16.9661 19.8626 16.5561L14.4671 12.7778H16.4043L20.4126 15.5845C20.4643 15.3973 20.5004 15.2034 20.5004 15.0001V14.9678L17.3721 12.7778H20.5004V11.6667Z" fill="#EEEEEE"/>
<path d="M0.5 11.6667V12.7778H3.62778L0.5 14.9672V15C0.5 15.6061 0.743897 16.1545 1.13779 16.5556L6.53281 12.7778H7.72227V13.3017L2.21445 17.1584C2.37778 17.1967 2.54668 17.2222 2.72222 17.2222H3.09111L7.72222 13.9795V17.2222H8.83335V11.6667H0.5Z" fill="#EEEEEE"/>
<path d="M20.5004 4.99996C20.5004 4.39386 20.2565 3.84552 19.8626 3.4444L14.4676 7.22218H13.2782V6.6983L18.7866 2.84162C18.6227 2.80328 18.4538 2.77775 18.2782 2.77775H17.9099L13.2782 6.02052V2.77775H12.1671V8.33331H20.5004V7.22218H17.3732L20.5004 5.03273V4.99996Z" fill="#EEEEEE"/>
<path d="M7.72222 2.77775V6.02052L3.09111 2.77775H2.72222C2.10112 2.77775 1.54111 3.03385 1.13779 3.4444L6.53281 7.22218H4.59556L0.587207 4.41608C0.536133 4.60328 0.5 4.79664 0.5 4.99996V5.03273L3.62666 7.22218H0.5V8.33331H8.83335V2.77775H7.72222Z" fill="#EEEEEE"/>
<path d="M12.1667 8.33336V2.7778H8.8333V8.33336H0.5V10V11.6667H8.83335V17.2222H12.1667V11.6667H20.5V10V8.33336H12.1667Z" fill="#CF1B2B"/>
</g>
<defs>
<clipPath id="clip0">
<rect x="0.5" width="20" height="20" fill="white"/>
</clipPath>
</defs>
</svg>
