<svg width="21" height="20" viewBox="0 0 21 20" fill="none" xmlns="http://www.w3.org/2000/svg">
<g clip-path="url(#clip0)">
<path d="M20.5 14.7223C20.5 15.9495 19.505 16.9445 18.2778 16.9445H2.72222C1.49502 16.9445 0.5 15.9495 0.5 14.7223V4.7223C0.5 3.49506 1.49502 2.50009 2.72222 2.50009H18.2778C19.505 2.50009 20.5 3.49511 20.5 4.7223V14.7223Z" fill="#E30917"/>
<path d="M9.38891 13.0557C7.54779 13.0557 6.05555 11.5635 6.05555 9.72238C6.05555 7.88126 7.54779 6.38903 9.38891 6.38903C10.1172 6.38903 10.7889 6.62516 11.3372 7.02125C10.5884 6.17457 9.49726 5.63737 8.27782 5.63737C6.02172 5.63737 4.19281 7.46627 4.19281 9.72238C4.19281 11.9785 6.02172 13.8079 8.27782 13.8079C9.49726 13.8079 10.589 13.2707 11.3372 12.4229C10.7895 12.8196 10.1178 13.0557 9.38891 13.0557Z" fill="#EEEEEE"/>
<path d="M11.563 9.85021L12.9179 10.1624L13.0407 11.5474L13.7563 10.3552L15.1118 10.6669L14.1985 9.6174L14.9135 8.42516L13.6335 8.96959L12.7207 7.92013L12.8429 9.30568L11.563 9.85021Z" fill="#EEEEEE"/>
</g>
<defs>
<clipPath id="clip0">
<rect x="0.5" width="20" height="20" fill="white"/>
</clipPath>
</defs>
</svg>
