<svg width="21" height="20" viewBox="0 0 21 20" fill="none" xmlns="http://www.w3.org/2000/svg">
<g clip-path="url(#clip0)">
<path d="M0.570742 15.531C0.585195 15.5871 0.603555 15.6416 0.621875 15.6955C0.671328 15.8394 0.731328 15.9783 0.806875 16.1083C0.807461 16.1094 0.807461 16.1112 0.808047 16.1112H0.80832C1.19332 16.7728 1.90164 17.2222 2.72223 17.2222H18.2778C19.0983 17.2222 19.8067 16.7728 20.1917 16.1112H20.192C20.1925 16.1112 20.1925 16.1094 20.193 16.1088C20.268 15.9794 20.328 15.8405 20.3775 15.6971C20.3964 15.6421 20.4147 15.5871 20.4292 15.5304C20.4425 15.4799 20.4525 15.4288 20.462 15.3777C20.4837 15.2579 20.4993 15.1366 20.5 15.0093V15V13.8889V12.7778V11.6667V10.5556V9.44455V8.33346V7.22236V6.11127V5.00002C20.5 4.87057 20.4845 4.74502 20.4617 4.62225C20.4528 4.57115 20.4423 4.52002 20.4295 4.47002C20.4145 4.41279 20.3962 4.35725 20.3773 4.30225C20.3278 4.15893 20.2684 4.02057 20.1928 3.89115C20.1928 3.89061 20.1923 3.88947 20.1917 3.88893H20.1918C19.8068 3.22725 19.0985 2.77783 18.2779 2.77783H10.5V3.88893V5.00002V6.11111V7.22221V8.3333V9.44439V10.5555H0.5V11.6666V12.7777V13.8888V15C0.5 15.1294 0.515703 15.2544 0.537891 15.3771C0.547344 15.4288 0.557969 15.4805 0.570742 15.531Z" fill="#EEEEEE"/>
<path d="M20.1917 3.88893C19.8067 3.22725 19.0984 2.77783 18.2778 2.77783H10.5V3.88893H20.1917H20.1917Z" fill="#B22334"/>
<path d="M0.5 14.9999H20.5V13.8888H0.5V14.9999Z" fill="#B22334"/>
<path d="M20.5 9.44452H10.5V10.5556H20.5V9.44452Z" fill="#B22334"/>
<path d="M20.5 7.22223H10.5V8.33332H20.5V7.22223Z" fill="#B22334"/>
<path d="M20.5 11.6667H0.5V12.7778H20.5V11.6667Z" fill="#B22334"/>
<path d="M18.2779 17.2222C19.0984 17.2222 19.8068 16.7727 20.1918 16.1111H0.808411C1.19341 16.7728 1.90173 17.2222 2.72232 17.2222H18.2779Z" fill="#B22334"/>
<path d="M20.5 5H10.5V6.11109H20.5V5Z" fill="#B22334"/>
<path d="M0.5 4.99997C0.5 4.87051 0.51668 4.74606 0.537773 4.62274C0.515547 4.74552 0.5 4.87051 0.5 4.99997Z" fill="#EEEEEE"/>
<path d="M0.808253 3.88904C0.807706 3.89013 0.807159 3.89072 0.807159 3.89181C0.807706 3.89068 0.807706 3.89013 0.808253 3.88904Z" fill="#EEEEEE"/>
<path d="M0.570648 4.4692C0.584554 4.41252 0.603969 4.35865 0.621742 4.3042C0.603422 4.35865 0.585101 4.41311 0.570648 4.4692Z" fill="#EEEEEE"/>
<path d="M10.5 2.77771H2.72223C1.495 2.77771 0.5 3.77271 0.5 4.99994V10.5555H10.5V2.77771Z" fill="#3C3B6E"/>
<path d="M1.61197 4.29199L1.95529 4.54145L1.8242 4.94477L2.16697 4.69531L2.51029 4.94477L2.37861 4.54145L2.72252 4.29199H2.29806L2.16697 3.88867L2.03642 4.29199H1.61197Z" fill="white"/>
<path d="M2.72308 5.40295L3.0664 5.65241L2.93472 6.05573L3.27804 5.80627L3.62136 6.05573L3.48968 5.65241L3.83359 5.40295H3.40918L3.27808 4.99963L3.14754 5.40295H2.72308Z" fill="white"/>
<path d="M4.94592 5.40295L5.28924 5.65241L5.15756 6.05573L5.50088 5.80627L5.8442 6.05573L5.71252 5.65241L6.05643 5.40295H5.63197L5.50088 4.99963L5.37034 5.40295H4.94592Z" fill="white"/>
<path d="M7.16699 5.40295L7.51031 5.65241L7.37863 6.05573L7.72195 5.80627L8.06527 6.05573L7.93359 5.65241L8.2775 5.40295H7.85305L7.72195 4.99963L7.59141 5.40295H7.16699Z" fill="white"/>
<path d="M2.72308 7.62549L3.0664 7.87494L2.93472 8.27826L3.27804 8.02881L3.62136 8.27826L3.48968 7.87494L3.83359 7.62549H3.40918L3.27808 7.22217L3.14754 7.62549H2.72308Z" fill="white"/>
<path d="M4.94592 7.62549L5.28924 7.87494L5.15756 8.27826L5.50088 8.02881L5.8442 8.27826L5.71252 7.87494L6.05643 7.62549H5.63197L5.50088 7.22217L5.37034 7.62549H4.94592Z" fill="white"/>
<path d="M7.16699 7.62549L7.51031 7.87494L7.37863 8.27826L7.72195 8.02881L8.06527 8.27826L7.93359 7.87494L8.2775 7.62549H7.85305L7.72195 7.22217L7.59141 7.62549H7.16699Z" fill="white"/>
<path d="M3.83383 4.29199L4.17715 4.54145L4.04547 4.94477L4.38879 4.69531L4.73211 4.94477L4.60043 4.54145L4.94434 4.29199H4.51989L4.38879 3.88867L4.25825 4.29199H3.83383Z" fill="white"/>
<path d="M6.05597 4.29199L6.39929 4.54145L6.26761 4.94477L6.61093 4.69531L6.95425 4.94477L6.82257 4.54145L7.16648 4.29199H6.74202L6.61093 3.88867L6.48038 4.29199H6.05597Z" fill="white"/>
<path d="M8.27881 4.29199L8.62213 4.54145L8.49045 4.94477L8.83377 4.69531L9.17709 4.94477L9.04541 4.54145L9.38932 4.29199H8.96486L8.83377 3.88867L8.70322 4.29199H8.27881Z" fill="white"/>
<path d="M1.61197 6.51428L1.95529 6.76374L1.8242 7.16706L2.16697 6.9176L2.51029 7.16706L2.37861 6.76374L2.72252 6.51428H2.29806L2.16697 6.11096L2.03642 6.51428H1.61197Z" fill="white"/>
<path d="M4.04603 7.16694L4.38935 6.91748L4.73212 7.16694L4.60103 6.76362L4.94435 6.51416H4.52044L4.38935 6.11139L4.25826 6.51416H3.83435L4.17712 6.76362L4.04603 7.16694Z" fill="white"/>
<path d="M6.05597 6.51428L6.39929 6.76374L6.26761 7.16706L6.61093 6.9176L6.95425 7.16706L6.82257 6.76374L7.16648 6.51428H6.74202L6.61093 6.11096L6.48038 6.51428H6.05597Z" fill="white"/>
<path d="M8.27881 6.51428L8.62213 6.76374L8.49045 7.16706L8.83377 6.9176L9.17709 7.16706L9.04541 6.76374L9.38932 6.51428H8.96486L8.83377 6.11096L8.70322 6.51428H8.27881Z" fill="white"/>
<path d="M1.61197 8.73657L1.95529 8.98603L1.8242 9.38935L2.16697 9.13989L2.51029 9.38935L2.37861 8.98603L2.72252 8.73657H2.29806L2.16697 8.33325L2.03642 8.73657H1.61197Z" fill="white"/>
<path d="M4.04603 9.38929L4.38935 9.13983L4.73212 9.38929L4.60103 8.98597L4.94435 8.73651H4.52044L4.38935 8.33374L4.25826 8.73651H3.83435L4.17712 8.98597L4.04603 9.38929Z" fill="white"/>
<path d="M6.05597 8.73657L6.39929 8.98603L6.26761 9.38935L6.61093 9.13989L6.95425 9.38935L6.82257 8.98603L7.16648 8.73657H6.74202L6.61093 8.33325L6.48038 8.73657H6.05597Z" fill="white"/>
<path d="M8.27881 8.73657L8.62213 8.98603L8.49045 9.38935L8.83377 9.13989L9.17709 9.38935L9.04541 8.98603L9.38932 8.73657H8.96486L8.83377 8.33325L8.70322 8.73657H8.27881Z" fill="white"/>
</g>
<defs>
<clipPath id="clip0">
<rect x="0.5" width="20" height="20" fill="white"/>
</clipPath>
</defs>
</svg>
