<svg width="66" height="72" viewBox="0 0 66 72" fill="none" xmlns="http://www.w3.org/2000/svg">
<path d="M66 33.2871C66 47.2401 57.2842 58.1574 45 62.8916C41.3421 64.3014 34.5 66.5 30.5 67.5C26.5 68.5 16.9735 72.0964 14.5 71.5C11.29 70.726 19.2641 63.6409 16.5 62C6.87628 56.2869 0.42578 45.2907 0.425781 33.2871C0.425781 15.1793 15.1051 0.5 33.2129 0.500001C51.3207 0.500001 66 15.1793 66 33.2871Z" fill="#FAA61A"/>
<path fill-rule="evenodd" clip-rule="evenodd" d="M40.7969 35.1007V39.2225H27.5224C26.3498 39.2176 25.2252 38.7458 24.3867 37.9072C23.5482 37.0686 23.0618 35.929 23.0304 34.7297V31.8239C23.0304 31.2213 23.1467 30.6247 23.3727 30.0682C23.5987 29.5118 23.9299 29.0065 24.3473 28.5814C24.7646 28.1563 25.26 27.8197 25.8049 27.591C26.3497 27.3623 26.9334 27.2459 27.5224 27.2487H40.8171C41.3513 27.2487 41.8636 27.4658 42.2414 27.8523C42.6192 28.2388 42.8314 28.763 42.8314 29.3096C42.8314 29.8561 42.6192 30.3803 42.2414 30.7668C41.8636 31.1533 41.3513 31.3705 40.8171 31.3705H26.4346V35.1007H40.7969ZM27.5224 18.8608H41.5019C44.1829 19.0252 46.7057 20.2136 48.5709 22.1907C50.4362 24.1677 51.5078 26.7893 51.5737 29.5363C51.528 31.6545 50.8912 33.7151 49.7384 35.4752C48.5856 37.2352 46.9648 38.6213 45.0673 39.4698L40.7969 35.1007C41.5388 35.12 42.2769 34.9871 42.9678 34.7098C43.6587 34.4326 44.2883 34.0167 44.8196 33.4866C45.3509 32.9565 45.7731 32.3229 46.0612 31.6232C46.3494 30.9235 46.4978 30.1719 46.4975 29.4126C46.471 27.8875 45.8575 26.4346 44.7901 25.3696C43.7227 24.3046 42.2878 23.7134 40.7969 23.7245H27.5224C25.4228 23.7245 23.4092 24.5778 21.9246 26.0968C20.44 27.6157 19.606 29.6758 19.606 31.8239V34.7297C19.606 36.8778 20.44 38.9379 21.9246 40.4568C23.4092 41.9758 25.4228 42.8291 27.5224 42.8291H40.8171V47.7134H27.5224C24.1601 47.708 20.9375 46.3376 18.5619 43.9033C16.1864 41.469 14.8521 38.1697 14.8521 34.7297V31.8239C14.8574 28.3875 16.194 25.0935 18.569 22.6636C20.944 20.2337 24.1636 18.8662 27.5224 18.8608V18.8608Z" fill="white"/>
</svg>
